<?xml version="1.0" encoding="utf-8"?>
<!-- Generator: Adobe Illustrator 19.1.0, SVG Export Plug-In . SVG Version: 6.00 Build 0)  -->
<svg version="1.1" id="Layer_1" xmlns="http://www.w3.org/2000/svg" xmlns:xlink="http://www.w3.org/1999/xlink" x="0px" y="0px"
	 viewBox="0 0 1191.2 51.7" style="enable-background:new 0 0 1191.2 51.7;" xml:space="preserve">
<g>
	<path style="fill:#666666;" d="M1174,29.2c0.6-0.2,0.3-0.6-1.4-0.5l-1.2,0.7L1174,29.2z"/>
	<path style="fill:#666666;" d="M1162.7,28c-2,0.3-4.3,0.9-3,1.6c2-0.7,2.4-0.4,4.5-1.2c1.7-0.1,2.9,0.2,2.7,0.5
		c0.6-0.2,2.6,0.2,3.5-0.3c-2.2-0.5-5-0.6-7.8-0.1C1162,28.3,1162.6,28.1,1162.7,28z"/>
	<path style="fill:#666666;" d="M998.4,26.9l1.1,0.1C999.2,26.9,998.9,26.9,998.4,26.9z"/>
	<path style="fill:#666666;" d="M896.7,26.5c0.8,0,1.1-0.1,1.1-0.1C897.1,26.4,896.5,26.4,896.7,26.5z"/>
	<path style="fill:#666666;" d="M879.3,25.7c0.4,0,0.7,0,1,0C879.9,25.7,879.5,25.7,879.3,25.7z"/>
	<path style="fill:#666666;" d="M998.4,26.9l-2.7-0.2C995.5,26.9,997.1,26.8,998.4,26.9z"/>
	<path style="fill:#666666;" d="M1140.1,29.6c0.6,0,1-0.1,1.5-0.2c-0.5,0-0.9,0.1-1.4,0.1C1140.1,29.6,1140.1,29.6,1140.1,29.6z"/>
	<path style="fill:#666666;" d="M1043.3,26.3h0.8c0.2-0.1,0.5-0.2,0.7-0.3L1043.3,26.3z"/>
	<path style="fill:#666666;" d="M1077.7,26.2c-0.8,0-1,0.6-1.3,0.8c0.4-0.2,1-0.4,1.7-0.4C1078.1,26.5,1078,26.4,1077.7,26.2z"/>
	<path style="fill:#666666;" d="M1132.4,27.2l1-0.1C1133.1,27.2,1132.6,27.2,1132.4,27.2z"/>
	<path style="fill:#666666;" d="M1018.7,26.2c-0.1-0.1-0.2-0.2-0.3-0.2C1018.4,26,1018.5,26.1,1018.7,26.2z"/>
	<path style="fill:#666666;" d="M55.6,30.6c0,0,0-0.1,0-0.1C55.4,30.6,55.3,30.6,55.6,30.6z"/>
	<path style="fill:#666666;" d="M15.7,27.7l0.6,0c0.1-0.1,0.1-0.2,0.1-0.3L15.7,27.7z"/>
	<path style="fill:#666666;" d="M847.5,25c0.1,0,0.1,0,0.1,0C848.5,24.9,848,24.9,847.5,25z"/>
	<path style="fill:#666666;" d="M555.5,25.4c3.3,0.5-5.4,0.7-0.4,1.3C554.7,26.4,559.7,25.7,555.5,25.4z"/>
	<path style="fill:#666666;" d="M1139.2,29.6c-0.5,0-0.9,0-1.4,0C1138.4,29.6,1138.8,29.6,1139.2,29.6z"/>
	<path style="fill:#666666;" d="M555.1,26.7C555.1,26.7,555.1,26.7,555.1,26.7l0.5,0.1C555.4,26.7,555.3,26.7,555.1,26.7z"/>
	<path style="fill:#666666;" d="M774.2,25.3c0.1,0.1,0.4,0.2,0.7,0.3C774.9,25.5,774.8,25.4,774.2,25.3z"/>
	<path style="fill:#666666;" d="M828.8,26.2l-1.3-0.1C828,26.1,828.4,26.2,828.8,26.2z"/>
	<path style="fill:#666666;" d="M745.9,26.2c-0.7,0-1-0.1-2,0c0.1,0,0.2,0.1,0.3,0.1C744.6,26.1,745,26.1,745.9,26.2z"/>
	<path style="fill:#666666;" d="M716.4,26.2c0.2,0,0.4,0.1,0.5,0.1c0.3,0,0.6,0,0.9,0L716.4,26.2z"/>
	<path style="fill:#666666;" d="M145.2,30.3c-0.6-0.2-1-0.3-1.4-0.5C144.3,30.2,140,30.4,145.2,30.3z"/>
	<path style="fill:#666666;" d="M1140.1,29.3c-0.2,0.1-0.4,0.2-0.9,0.3c0.3,0,0.7,0,1,0C1140.2,29.4,1140.3,29.3,1140.1,29.3z"/>
	<path style="fill:#666666;" d="M744.7,30.8l-4.7-0.1C741.3,30.8,743,30.8,744.7,30.8z"/>
	<path style="fill:#666666;" d="M356.9,30.2l-1.1,0.1C356.2,30.3,356.6,30.3,356.9,30.2z"/>
	<path style="fill:#666666;" d="M726.1,30.8c-0.8-0.2-1.7-0.3-2.6-0.4c-0.2,0-0.4,0.1-0.6,0.2L726.1,30.8z"/>
	<path style="fill:#666666;" d="M143.9,29.8C143.9,29.8,143.9,29.8,143.9,29.8C143.9,29.8,143.9,29.8,143.9,29.8z"/>
	<path style="fill:#666666;" d="M113,31.2c4.5,0,2.1-0.8,3.1-1.2c5.3-0.2,2.5,0.6,4.3,1c3.3-0.2,5.9-0.9,8.4-0.9
		c0.2,0.1,0.7,0.2,0.1,0.3c3.5-0.6,10.4,0,14.5-0.8c0.3,0.1,0.5,0.1,0.5,0.2c-0.7-0.4-0.8-0.8-0.6-1.1c2,0,3.7-0.5,4.5,0
		c-1.2,0-1.3,0.2-1.9,0.3l2.1-0.2c1.9,0.7-2.9,0.3-2.9,0.8c4.1-0.2,8.9-0.8,12-0.6c0.7,0.7-7.3,0.2-3.1,0.9l-4.9-0.3
		c3.7,1.1-2.9-0.1,0.5,1.1c6.4,0.2,7.1-0.4,13.5-0.2c1.4-0.4-0.5-0.6,1-1c9.1-0.7,7.1,1.8,13.8,0.8c1.7-0.5,2.4-1.4,7.1-0.9
		l-1.6,0.8c6.2,0.1,3.5-1.2,10-0.6c-1.2,0.3-4.9,0.3-3.9,0.4c4.2,0.6,3-0.5,6.2-0.5l0.7,0.7c6.6-0.1,13.8-0.6,21.1-0.8
		c-0.4,0.2-1.6,0.4,0.1,0.7c9.2-0.4,19.6,0.1,28.5,0.5l3.4-0.6c0.8,0,1.5,0.3,0.6,0.4c3.5,0.2,0.2-0.4,1.8-0.6c2,0,2.6,0.4,1.3,0.5
		c6.1-0.5,17.4-1.1,23.8-0.5l-1.3,0.2c5,0.3,5.6-1.3,10.3-0.7l-0.9,0.1c10.9,0.3,22.8-0.3,31.1,0.6c1.6-0.9,10.7,0.4,11.4-0.8
		c6.2,0.6,4.4,0.8,13.2,1.2c2.3,0.1,3.5-0.8,6.4-0.9l0.1,0.6l3.9-0.7l2.1,0.8l2.7-0.2c-1.1,0-2.3-0.3-2.1-0.5
		c4.2-0.3,10.3,0.4,10.4,0.8l10-0.5c-0.2,0.3-1.9,0.3-3.2,0.5c5.3-0.7,1,0.7,5.9,0.1c-0.7-0.1,0.4-0.4,0.5-0.5
		c2.4,0.4,8,0.4,12.1,0.2l-0.8,0.4c7.4,0.1,15.6-0.2,23.9-0.2c-3-0.2-2.3-1,0.1-1.1l1,0.7c1.6-0.4-2.5-0.3,0.7-0.8
		c3.1,0.1,2.1,0.8,0.3,1l3.8-0.2c0.2,0.2-0.7,0.3-0.9,0.6c1.6-0.4,6.5,0.7,8.8-0.1l0.2,0.2c8.3,0,12.1-0.2,18.9-0.3
		c0.1-0.6,2.8-0.5,4.8-0.9c5,0.2,10.5,0.7,16.5,0.6c4.2-0.3,1.2-0.5,3.1-0.9c0.3,0.5,6.3,0.5,3.2,0.9c7.2-0.1,9.2-0.1,18.3-0.5
		c-1-0.2-2.1-0.3-1.5-0.5c1.7-0.1,3.8,0.2,3.5,0.5l-0.4,0.1c10.2-0.8,23.6,1.6,31.7,0.4l-0.5,0.1l8.4-0.6c3.9,0.1-2.3,0.4,0.5,0.7
		c9.1-0.9,14.4,0.1,21.9-0.5c5.8,1.6,20.6-0.1,28.4,0.9l-0.5-0.4c2-0.4,2.4,0.2,3.9,0.3c-0.2-0.3-2.2-0.3-0.9-0.5
		c17.1-0.5,35.4,0.5,53,0.9c6.4,0.1,3.7-1.9,11.8-1l-2.3,0.7c13-0.8,26.5,0,39.2-0.7c-0.8,0.2-0.8,0.4-2,0.4c2.7,0.5,9.9,0,10-0.4
		c2,0,0.4,0.4,1.7,0.6c2.7,0.3,6.8-0.6,8.2-0.1c0.2,0.1-0.8,0.2-1.2,0.2c1.8-0.2,8.2,0.1,6.5-0.5c4.8,0.3,9.1-0.3,12.9,0.1
		c2.5-0.7,8.2,0.3,8.9-0.6c-0.3,0.9,8.4,0.8,11.4,0.3c-1,0.3,2.6,0.3,1.4,0.7c3.4,0,6.6-0.2,6-0.7c6.3,1.1,12.7-0.9,16.3,0.5
		c10.2-0.5,19.7-0.9,28.9-1.1c-0.3,0.9-10.2,0.1-9.8,1.1c8.7-0.4,13.7-1.2,22.4-1c2.2,0.1-1.3,0.4-2,0.6c8.7-0.4,16.8,0.1,24.6-0.4
		c0,0.1-0.9,0.2-1.6,0.3c1.5,0,3.6,0.1,3.4-0.3l-1.5,0.1c-2.4-0.6,6.1-1.3,6.3-1.6c-2.6,1.2,7.7,0.3,3.6,1.9c1-0.1,2.3-0.3,2-0.6
		c1.5,0.1,2,0.3,0.5,0.6c5.5-0.2,3.5-0.7,8.5-0.7c0,0.2-1,0.3-1.5,0.5c2.5-0.4,5-0.8,9.2-0.6c-0.3,0.1,0.2,0.3-1,0.3
		c7.2-0.1,12.3-1.1,20.2-0.7c-2.3,0.9,2.7,0.3,3.1,1.1l4.2-0.2l-1.7-0.4c3.7,0,7-0.6,10.2-0.3l-2.8,0.3l7-0.1l-3.9-0.3
		c3.8-0.4-0.4-1,4.5-0.8c-1,0.1,3.7,0,5.7,0.5h0c1.8-0.2,3.7-0.5,6.5-0.3c0.7,0.2-0.6,0.9-0.1,1c1.8-0.7,8.7-0.2,11-0.9
		c-0.8,0.2-0.8,0.6-0.6,0.7l1.5-0.5c1.7,0.2,2,0.3,1.7,0.6c5.2,0.1-1.6-1,4.5-0.6c-0.5,0-0.3,0.1-1.3,0.2c6.2,0.2,11.9-0.3,17.6-0.1
		c1.7,0.8-5,0.2-3,0.9c8.2-0.1,16.9-0.9,24.9-0.8l-1.5-0.1c1.1-1.1,5.9,0.5,9.9,0c-1,0.1-1.3,0.6-1,0.5c5.4,0.2,11.1-0.3,19.3-0.6
		l-1,0.3c3.2,0.3,8.4,0.1,11.9,0.3c1-0.3,3-0.2,1.8-0.7c10.6,1.6,20.3-0.9,29.7,0.5c-1.1,0-2.7,0.3-1.8,0.3l8-0.3
		c-0.6-0.5-1.1-0.3-2.7-0.7c1-0.3,3.3-0.5,5.3-0.5c-3.6,0.3,0,0.8,1.6,1c-0.3-0.2,0.3-0.3,0.1-0.5c4.2,0.9,0.7-1,6.4-0.4l-0.3,0.3
		c2.1-0.1,4.1-0.5,6.4-0.4c1,0.6-2.3,0.3-2.4,0.7c3.3,0,6.4-1.1,9.4-0.5c-1.4,0.2-3.4,0.2-4.8,0.3c3.2,0.7,3.6,0.5,6,0.6l-0.2,0
		l5.5,0.3l-1.4-0.2c4.1-1.5,8.3-0.3,13.8-1.2c-5.3,0.9-0.9,0.5-1.3,1.2c1.4,0.2,3.5,0.4,2.9,0.6c2.6-0.5,4.3,0.4,8-0.3
		c0.2,0.2,2.8,0,2.2,0.5c3.4-0.2-0.8-0.4-0.5-0.6c5.2-0.7,12.2,0.8,19.7-0.1c6.5-0.4,7.6-1.1,13.6-1.4c2,0.3-1.6,0.7-1.6,0.7
		c3.3,0.3,5.7,0.2,8.8,0c-0.6,0.2,0,0.3,0.9,0.6c2.5-0.1,1.6-0.7,4.9-0.4c-0.6,0.2-1.3,0.6-2.5,0.8c2.9-0.2,5.8-0.6,8.8-0.8
		c0.8,0.4-1.8,0.5-2.9,0.8c3.4-0.2,8.7-0.3,9.8-0.9l-2.2-0.2c1.2,0,0.6,0.5-0.3,0.6c-2.9,0.4-4.2-0.2-4.3-0.4l2.1-0.1
		c-2.2-1.2-8.6,0.2-12.9,0.1l1.8-0.9l-4.4,0.7c-0.9-0.2-1.6-0.7,0.5-0.8c-3.1-0.4-2.7,0.3-5.4-0.2c-0.3-0.1-0.2-0.1,0.1-0.1l-3,0.3
		c0.6-0.2-0.5-0.6,1.3-0.5c-5.4-0.5-8.7,0.7-10.8,0l0.4-0.1c-7.5,0.3-0.7,0.6-6.4,1.4l-3.8-1.6l-0.7,0.6c-0.8,0-2.3-0.1-2-0.3
		c-2.9,0.4,0.5,0.3-1.2,0.7c-3.7-0.6-10.3,0.3-11.1-0.8c-1.3,0.5,3.6,0.4-0.4,0.7c-1.1-1.1-4.6,0.2-8-0.3c1-0.6,4.3-0.3,0.9-0.8
		c-2.1,1-6.6-0.2-9.5,0c-0.1,0.8-6.3,0.3-11.1,0.6c0.3-0.3-9.1-0.4-13.5-0.7l0.1-0.1c-0.9,0.8-5.5,0.6-8.9,0.8
		c0.1-0.5,0.7-0.6,2.6-0.8l-3.2,0c-0.8,0.2-1.7,0.4-3.8,0.5l0.8-0.6c-4.2,0-8.5,0.7-13.9,0.3c-0.3,0.5,4.3,1.5-1.4,1.9
		c-0.2-0.3-0.4-0.8,1.1-0.9c-0.5,0-1.7,0.2-2.7,0.1l2.3-0.5c-2.5-0.2-1.3,0.4-3.3,0.4c0-0.4-1.5-0.3-1.2-0.6c0.5,0,1.7,0.2,2.5,0
		c-2.2-0.1-4.9-0.3-5.8-0.6c0.2,0.2,0,0.6-1.6,0.6c-4.2,0-1.4-0.5-3.9-0.7c-1,0.3-3.7,0-3.8,0.6c-1.2,0-1.5-0.3-1.9-0.5
		c-2.2,0.3-10.2,0.1-7.7,0.7l0.6,0c-0.1,0-0.2,0-0.4,0c0,0,0,0,0,0h0c-7.1,0.6-14.9-0.4-22-0.1l0-0.2c-4.2,0.2-9.4,0.1-12.4,0.6
		c-1.2,0-3-0.4-2.4-0.6c-3.2,0.2-3.6,0.4-8.3,0c3.3-0.4-1.1-0.3,3.3-0.3c-4.2-0.2-5.2-0.5-9.7,0.1c1.5-0.5-3.2-0.7-5.2-0.5l2.9,0.4
		c-2.2,0.1-4.2,0-6.2,0l1.1-0.7c-8.6-0.9-15.5,1.4-22.1,0c-2.3,0.5,4.7,0.3,2.6,0.9c-4-0.1-8.1-1.1-9.3-1.1c-5.4-0.4-5.1,1-10.7,0.8
		c0.7,0.2,1.4,0.9-2.8,1.1c-4-0.1-4.9-1-2.4-1.2c1,0,1.4,0.1,1.4,0.1c1.3-0.1,3-0.2,1.4-0.5l-0.5,0.2c-2-0.3-7.4-0.2-6.1-0.6
		c-3,0.2-1.3,0.4,0.9,0.5c-5.1-0.4-7.9,0-13.2-0.3c0.8,0.1,1.6,0.4,0.8,0.4c-7.7-0.3-3.4,0.5-8.6,0.6c-3-0.4,1.1-0.9-4.2-0.6
		c-3.2-0.3-0.7-0.7,0.6-0.9c-4.8,0.5-8.9-0.3-11.6-0.4l2.5-0.2c-1.5,0.1-2.7,0.1-4,0.1l1.4,0.5c-1.5-0.1-2.7-0.1-2.7-0.3
		c-1.5,0.3,1.2,0.8-1.8,1.3c-2-0.3-6,0.3-6.7-0.4c6.2,0.2-0.7-0.7,4.6-0.8c-1,0.1-2.2,0.1-3.7,0c-0.2-0.1,0.2-0.1,0.6-0.2
		c-5.9-0.6-2.7,0.7-8.8,0.7c0.8-0.4-1.4-0.7-2.4-0.6c2.5,0,1.2,0.6-1.1,0.9c-3.9-0.3-4.3,0.2-6.3,0.2l2.3,0.1
		c-0.8,0.4-2.8,0.3-5.5,0.4c-0.2-0.3,2.5-0.2,1.5-0.3c-3,0.7-6.9-0.7-11.1-0.2c-2-0.3-0.2-0.7-1.9-0.9c-4.8,0.5-5.2-0.5-10.2-0.1
		c1.4,0.5,1.7,0.4-1.8,0.9l8.2-0.4l-5.3,0.7c2.5,0,5.2-0.3,6.7-0.2c-2.5,0.4-2.3,0.3-1.1,0.7c-3.4-0.8-6.7,0.4-10.7-0.1l0.1-1.2
		c-5.9-0.6-10.5,0.6-18.1,0.3l2.5,0.2c-1,0.5-4.7,0.1-7.2,0.3c0.2-0.4-1.3-0.6-2.4-0.8c0.1,0.3-5.6,0-6.3,0.8l-3.4-0.5
		c-6.2-0.2-7.1,1.2-13,1c1.8-0.5-0.9-0.7,3.1-1.1c-2,0-3.8-0.1-3.8,0.2c-1.2-0.3-5.5,0.6-7.3,0.2c-0.8,0.2-1.1,0.6-3.3,0.6
		c-0.2-0.1,0-0.2,0-0.2c0,0.2-3.5,0.3-1.5,0.7c-6.1-1.3-17.1,0.1-22.4-1c-4.3,0.1-9.5,0.3-13.5,0.3c0.3-0.1,0-0.2,0.8-0.2
		c-5.4-0.4-3.3,1.2-9.5,0.8c-3.1-0.7,3.3-0.4,1.3-0.6c-0.9-1.4-7.5,0.2-11.6-0.6l1-0.1c-3.2-0.5-7.8,0.5-12.9,0.4c0,0,0.2-0.1,0-0.2
		c-3.5,0.7-10.3,0.9-15.2,1.1c1.5-0.5,2.3-0.3,1.3-0.8c-2.2,0.1,0.7,0.9-3.8,1c-1.5-0.3-4.7-0.5-5.1-1.1l4.2,0
		c-2.1-0.7-5.4,0-7.7-0.1l0.3-0.3c-6.5,0.1-6.5,0.9-13.5,0.9l0.7,0.2c-3.8,0.8-3.2-0.5-7,0.1l-1.1-0.8c-2.5,0.2-8.8,0.8-13.2,1
		c2.5-0.6,7.8-0.9,11-1.3c-2.5,0-8.4,0.1-9.7,0.5c1-0.1,2.3-0.3,3.2-0.2c-3,0.6-7.1,1-12,1c0.9-1.6-12.9-0.4-16.5-1.7
		c-8.7,0.6-17.3-0.3-27.5-0.2c3.6,1.2-3,0-2.3,1.3c-2.4,0.1-3.3,0.1-3.5,0l-7.2-0.8c-1.7-0.4,2.3-0.3,2-0.6
		c-5.2-0.1-2.2-0.5-5.6-0.9c0.7,0.5-1.8,0.7-4.8,0.5l4.2,0.6c-7.3,0.7-6.3-1.1-13.6-0.4l2.3-0.4c-3.8,0.2-13.8,0-17.5,1
		c-0.7-0.2-1.5-0.5,0.1-0.6c-9-0.2-20,1.1-26.9,0.5l0.7-0.3c-1.7,0.1-2.9,0.6-5,0.3c0.1-0.1,0.7-0.3-0.1-0.3
		c-0.9,0.1-4.4,0.6-6.7,0.4l1.9-0.4c-8.7-0.4-13.4,0.9-20.8,1.1c0-0.9-6.9-1.2-10.3-1.4l0.1-0.1c-10.2-0.1-17.3,0.8-26.7,1.1
		c-5.9-1-19.8-0.4-29.3-1c1.4,0.2-0.2,0.7-1.9,0.8c-2.2-0.2-6.1,0.6-5.8-0.2l0.8,0c-1.7-0.8-6.2-0.6-9.8-0.6l-0.6,1.1
		c-9.3-1.6-24.3,0.6-29.4-0.9c-2.2,0.3-5,0.3-7.2,0.6l0.1-0.6c-6.2-0.2-9.3-0.2-16.9-0.1l1.6-0.4c-4.3,0-5.5,1.7-9.4,1.7l-1.2-0.9
		c-7.5,0-15.2-0.8-22.6,0c0.1-0.1,0.3-0.4,1.6-0.4c-3.5,0-13.7-0.6-12.4,0.6c-0.1-0.8-7.8-0.1-11.9,0.3l0.6-0.6
		c-3.4,0.7-3.6,1-8.3,1.2c-1.1-0.1-1-0.5,0.5-0.3c-3.8-0.3-3,0.6-7.5,0.2l1.7-0.4c-3.9,0-3.6,0.2-5.7,0.6c-2.5,0.2-7.4-0.1-8-0.7
		c-0.5,0.3-2.7,0.8-5,0.6c-0.3-0.2,0.5-0.3,0.9-0.4c-6.5-0.4-9.7,0.7-14.2,0.1c-0.1-0.2-0.4-0.3-0.8-0.4c5.2,0,9.4,0,9,0.1
		c0-0.5-4.2-0.6-0.9-1.4c-3.4,0.4-9.1,1.3-13.2,1c-0.2,0-0.4-0.1-0.5-0.2l0.4-0.1c-0.9-0.1-1.8,0-2.6,0.1c-1.3-0.1-2.1-0.1-3.4-0.2
		c-0.5-0.4-4.8-0.2-6.9-0.3c0.2,0.6-2.6,0.5,0,1c-0.3,0,0.4-0.1,1.8-0.1c0.3,0,0.7,0,0.9-0.1c0,0-0.1,0-0.1,0.1c1.4,0,3.1,0,5.2,0
		c-1.6,0.3-3.4,0.6-5.7,0.2c-1.1,0.4-2.3,0.8-2.9,1c-2.8-0.8-8.3-1.3-9.1-1.8c-6.4,0.3-15,0.2-19,1.3c-1.8,0.1-2.1-0.3-2.8-0.5
		c1-0.1,2.3-0.1,2.9-0.3c-3.6,0.3-10.7,0.1-11.6,0.9c-4.6-0.4,2.6-0.7-3.7-0.6l0.8-0.2c-12.3-1.2-20,2-33.7,0.4
		c0.9,0.1,1.4,0.1,1.6,0.3c-15.6-0.7-32.1,0.7-47.5-0.5c-4.4-0.2-4.8,0.3-7.5,0.6l-0.9-0.6L67.2,27c-6.5,0.5-11.2-1.6-19.4-0.5
		l1.1,0.4c-2.9-0.1-9.3,0.3-8.8-0.2c-0.3,0.1-1,0.4-2.1,0.2l-0.1-0.3l-7.2,0.6c-5.6-0.2,0.9-1.3-7.3-1.4c-3,0.1-8.7,1-7.5,1.2
		c1.2,0,3.1,0.2,3.2,0.5l-2.8,0.2c-0.5,1-2.6,2,4.2,2.7l4.8-0.6l1.5,0.5l-4,0c2.3,0.4,3.7,0.1,5.3-0.2c0.4,0.3,1.1,0.4,2,0.5
		l4.7-0.9c0.6,0.4-2.1,0.8,1,1c2.2-0.4-2.1-0.9,1.5-1.1c2.3,0.4,1.6,0.8,4.3,0.4c0.4,0.3-0.2,0.4-1.2,0.5c2.4-0.3,6.3-0.1,7.5-0.6
		c2.4,0.5,8-0.1,7.8,0.8c0.7-0.2,4.2-0.7,6.4-0.8c-4,1.1,8.2,0.1,7.1,1.3c3-1,10.7-0.4,15.9-1c-0.3,0.1-0.9,0.2-1.3,0.2
		c2.9,0.1,3.8,0.4,5.7,0.6c0.4-0.8,5-1,7.4-1.5c3.6,0.8-2.2,1-1.1,1.7c-0.2-0.7,6.3-0.7,5-1.2c2.8,0.5,2.4,0.2,3.8,0.9
		c0.5-1,2.6-0.2,4.9-0.8c4,0.5,1,1,5.4,0.7C116.9,30.8,113,31.2,113,31.2z M217.3,29.4C217.3,29.4,217.3,29.4,217.3,29.4
		c-0.9,0-1.7,0-2.2,0C215.6,29.5,216.2,29.4,217.3,29.4z M226.1,29.4c-1.1,0-2.4,0-3.8,0c-0.3-0.2,0-0.4,0.9-0.4
		C222.7,29.1,224.8,29.2,226.1,29.4z M207.5,25.3c1.4-0.1,1.8,0,2,0.2c-0.7,0-1.4,0-2.4,0.1c0,0-0.1,0-0.2,0.1
		C207.1,25.5,207.3,25.4,207.5,25.3z"/>
	<path style="fill:#666666;" d="M205,26.1c-0.2,0-0.3,0-0.6,0c0.3,0,0.6,0.1,0.8,0.1c0.2-0.1,0.3-0.1,0.5-0.2
		C205.5,26.1,205.3,26.1,205,26.1z"/>
	<path style="fill:#666666;" d="M999.7,27l-0.2,0c0.2,0,0.3,0,0.4,0.1C999.8,27,999.8,27,999.7,27z"/>
	<polygon style="fill:#666666;" points="347.1,30.5 347.1,30.4 346.3,30.5 	"/>
	<path style="fill:#666666;" d="M1048,29c0.1,0,0.3,0.1,0.6,0.2C1048.6,29.1,1048.3,29,1048,29z"/>
	<path style="fill:#666666;" d="M1068.8,29.1l2.9,0.2C1070.5,29.2,1069.6,29.2,1068.8,29.1z"/>
	<path style="fill:#666666;" d="M1084.9,29.4c0.2-0.1,0.3-0.2,0.3-0.3c0,0,0,0,0,0L1084.9,29.4z"/>
	<path style="fill:#666666;" d="M829.9,30.1c-0.2,0-0.4,0-0.6,0C827.8,30.2,828.8,30.2,829.9,30.1z"/>
	<path style="fill:#666666;" d="M905.8,28.7c-0.8,0.1-1.6,0.2-2.4,0.3C904.7,29.1,905.7,29.1,905.8,28.7z"/>
	<path style="fill:#666666;" d="M745.2,30.8C745.2,30.8,745.2,30.8,745.2,30.8c-0.2,0-0.3,0-0.5,0L745.2,30.8z"/>
	<path style="fill:#666666;" d="M899.8,29c1.3,0.1,2.5,0.1,3.5,0C902.2,29,900.9,28.9,899.8,29z"/>
	<path style="fill:#666666;" d="M1154.4,29.7l0.8,0c0,0,0-0.1,0.1-0.1L1154.4,29.7z"/>
	<path style="fill:#666666;" d="M1155.2,29.6l0.9-0.1C1155.7,29.5,1155.3,29.5,1155.2,29.6z"/>
	<path style="fill:#666666;" d="M1157.9,29.4l-1.8,0.1C1156.7,29.5,1157.5,29.6,1157.9,29.4z"/>
	<path style="fill:#666666;" d="M1133.1,29.4l-0.2,0.2C1133,29.6,1133.1,29.5,1133.1,29.4z"/>
	<path style="fill:#666666;" d="M1126.7,29.5c1.5,0.1,3.9,0.5,6,0.3l0.2-0.2C1131.9,29.9,1128.1,29.1,1126.7,29.5z"/>
	<path style="fill:#666666;" d="M1099.8,26.8l5.4,0.2c-0.9-0.2-2.2-0.5,0.3-0.6C1098.6,25.7,1106.8,26.9,1099.8,26.8z"/>
	<path style="fill:#666666;" d="M1083,26.5c2.9-0.1,0-0.3,0.1-0.5C1081.3,26.2,1080.8,26.3,1083,26.5z"/>
	<path style="fill:#666666;" d="M961.9,26.5l0.3-0.5C959.9,26,962.2,26.2,961.9,26.5z"/>
	<polygon style="fill:#666666;" points="938.7,29.3 940.9,29.6 941.9,29.1 	"/>
	<polygon style="fill:#666666;" points="925,25.4 926,25.4 922.3,25.6 	"/>
	<path style="fill:#666666;" d="M721.6,25.6l0.7,0.7C723.8,26.2,724.1,25.4,721.6,25.6z"/>
	<path style="fill:#666666;" d="M633.8,26.3c-1-0.3-3.4-0.5-5-0.2C630.8,26.1,632.8,26.4,633.8,26.3z"/>
	<polygon style="fill:#666666;" points="370.4,25.2 372.2,25 368.9,25.2 	"/>
</g>
</svg>
