<?xml version="1.0" encoding="utf-8"?>
<!-- Generator: Adobe Illustrator 19.1.0, SVG Export Plug-In . SVG Version: 6.00 Build 0)  -->
<svg version="1.1" id="Layer_1" xmlns="http://www.w3.org/2000/svg" xmlns:xlink="http://www.w3.org/1999/xlink" x="0px" y="0px"
	 viewBox="6.6 9.9 177.2 177.4" style="enable-background:new 6.6 9.9 177.2 177.4;" xml:space="preserve">
<pattern  x="0" y="200" width="27.3" height="27.3" patternUnits="userSpaceOnUse" id="New_Pattern_Swatch_2" viewBox="0 -27.3 27.3 27.3" style="overflow:visible;">
	<g>
		<polygon style="fill:none;" points="0,0 27.3,0 27.3,-27.3 0,-27.3 		"/>
		<g>
			<polygon style="fill:none;" points="0,-27.3 27.3,-27.3 27.3,0 0,0 			"/>
			<path style="fill:#E43232;" d="M10,0L0-10v-2.2L12.2,0H10z M7.2,0L0-7.3v2.2l5,5L7.2,0L7.2,0z M2.2,0L0-2.3v2.2L2.2,0L2.2,0z
				 M25-27.3l2.2,2.2v-2.2H25z M20-27.3l7.2,7.2v-2.2l-5-5H20z M15-27.3l12.2,12.2v-2.2l-10-10H15z M27.3,0v-13.6h-1.4L13.6-25.9
				v2.2l10,10h-2.8l-7.2-7.2v2.2l5,5h-2.8l-2.2-2.2v2.2l0,0h-2.2l2.2,2.2v2.8l-5-5H6.4l7.2,7.2v2.8l-10-10H1.4L13.6-1.5v1.4h13.7V0z
				"/>
		</g>
	</g>
</pattern>
<pattern  id="SVGID_1_" xlink:href="#New_Pattern_Swatch_2" patternTransform="matrix(1 0 0 -1 0 -16491.3125)">
</pattern>
<rect x="6.6" y="9.9" style="fill:url(#SVGID_1_);" width="177.2" height="177.4"/>
</svg>
