<?xml version="1.0" encoding="utf-8"?>
<!-- Generator: Adobe Illustrator 19.1.0, SVG Export Plug-In . SVG Version: 6.00 Build 0)  -->
<svg version="1.1" id="Layer_1" xmlns="http://www.w3.org/2000/svg" xmlns:xlink="http://www.w3.org/1999/xlink" x="0px" y="0px"
	 viewBox="0 0 240.1 71.1" style="enable-background:new 0 0 240.1 71.1;" xml:space="preserve">
<g>
	<path style="fill:#46982A;" d="M237.6,13.9c0-0.1-0.1-0.3-0.3-0.4c-0.3-0.2-0.8-0.2-1,0.1c-6,7.9-12.5,13.7-19.3,17.9
		c-0.8-2.3-3.8-8-14.2-4.5c0,0,2.9,6.7,12.1,5.7c-5.3,3-10.7,5.1-16.3,6.5c0.4-2,1.1-9.1-10.4-10.9c0,0-0.6,8,9.4,11.2
		c-5.5,1.3-11.2,1.9-17,2.1c0.5-3,0.4-11.2-13.3-13.3c0,0-0.6,9,9.9,13.3c-9.1,0-18.5-1-28.1-2.4c1.7-2.8,7-13.8-7.5-21.2
		c0,0-5.1,14.3,5.3,20.9c-3.5-0.5-7-1.1-10.6-1.6c-0.3-3-2.2-16.3-14.7-17.1c0,0-2.8,11.4,7.5,16c-4.7-0.7-9.5-1.4-14.2-2
		c-3.5-0.4-7-0.8-10.3-1.1c-0.1-1.5-1.4-16.7-14.7-17.5c0,0-3.5,14.3,11.9,17.3c-6.8-0.6-13.3-1-19.8-1c0.4-2.3,2-16.5-10.4-20.2
		c0,0-7.2,14.2,9.4,20.2c-3.1,0-6.2,0.1-9.3,0.3c-10.7,0.7-19.9,2.3-28.6,5.2c-3.4-14.6-17.9-14.3-17.9-14.3
		C27.8,37.6,38,38.3,41.8,38c-3.9,1.4-7.7,3-11.6,5c-0.8-2.2-4.1-7.9-14.4-4c0,0,3,6.3,11.7,5.4c-1.5,0.8-3.1,1.7-4.6,2.6
		c-4.4-1.5-14.8-3.8-20.5,5.6c0,0,12.3,10.9,22.5-4.8c0,0-0.1,0-0.3-0.1c4.8-2.8,9.4-5,14-6.9c-2.8,2.2-6.6,7-5,16.2
		c0,0,12-1.4,7.8-17.3c9.3-3.4,19-5.2,30.5-5.9c3.2-0.2,6.4-0.3,9.6-0.3c-3.1,1.6-8.1,5.6-8,15.4c0,0,11.9,0.6,10.5-15.4
		c5.1,0.1,10.3,0.3,15.6,0.8c-3.1,1.6-8,5.7-7.9,15.4c0,0,11.8,0.6,10.6-15.1c3.9,0.4,7.9,0.8,12.1,1.3c-2.7,1-9.5,4.6-9.4,16
		c0,0,12.1,0.6,10.5-15.9c6.6,0.8,13.4,1.9,20,2.9c8.2,1.3,16.4,2.6,24.6,3.4c-2.9,1.2-9,5-9,15.9c0,0,12,0.6,10.5-15.7
		c4.4,0.4,8.7,0.7,13,0.8c-2.5,1.5-8.5,6.2-6.5,17.3c0,0,12-1.4,7.7-17.3c6,0,11.9-0.4,17.7-1.4c-2,0.7-8.3,3.9-4,14.6
		c0,0,7.6-3.9,4.6-14.7c6-1.1,11.8-2.9,17.5-5.6c-1.6,2.2-2.5,5.8-0.1,11.8c0,0,7.3-3.7,4.7-14.2c7.6-4.4,14.7-10.5,21.2-19.1
		C237.7,14.4,237.7,14.2,237.6,13.9z"/>
	<path style="fill:#46982A;" d="M56.9,33.9c0,0,6.7-13.1-11.6-16.7C45.3,17.2,41.1,30.6,56.9,33.9z"/>
	<path style="fill:#46982A;" d="M57.8,50.6c0,0,12.4,0.6,10.5-16.4C68.3,34.2,57.7,36.3,57.8,50.6z"/>
	<path style="fill:#46982A;" d="M137.8,51.4c0,0,8.5,0.4,11.3-10.5C149,40.9,139.6,38,137.8,51.4z"/>
</g>
</svg>
