<?xml version="1.0" encoding="utf-8"?>
<!-- Generator: Adobe Illustrator 19.1.0, SVG Export Plug-In . SVG Version: 6.00 Build 0)  -->
<svg version="1.1" id="Layer_1" xmlns="http://www.w3.org/2000/svg" xmlns:xlink="http://www.w3.org/1999/xlink" x="0px" y="0px"
	 viewBox="0 0 240.1 71.1" style="enable-background:new 0 0 240.1 71.1;" xml:space="preserve">
<g>
	<g>
		<path style="fill:#E6E6E6;" d="M209.6,43.7C209.8,43.2,208.9,43.2,209.6,43.7C209.7,43.5,209.6,43.7,209.6,43.7z"/>
		<path style="fill:#E6E6E6;" d="M207.6,41.7c-0.2,0.8-0.3,1.6-0.5,2.5c0.3-0.6,0.5-1.2,0.8-1.9c0,0,0.8,1.5,1.1,0.3
			C207.8,42.9,207.3,42.6,207.6,41.7C207.3,42.3,207.6,41.9,207.6,41.7z"/>
		<path style="fill:#E6E6E6;" d="M179.2,40.5l0.2,0.1C179.3,40.6,179.3,40.5,179.2,40.5z"/>
		<path style="fill:#E6E6E6;" d="M161.6,40.5c0.1,0,0.2-0.1,0.2-0.2C161.7,40.3,161.6,40.4,161.6,40.5z"/>
		<path style="fill:#E6E6E6;" d="M158.6,39.4c0.1,0,0.1,0,0.2,0.1C158.7,39.4,158.6,39.3,158.6,39.4z"/>
		<path style="fill:#E6E6E6;" d="M179.2,40.5l-0.5-0.3C178.7,40.6,179,40.5,179.2,40.5z"/>
		<path style="fill:#E6E6E6;" d="M203.7,44.4C204.3,44.1,203.7,44,203.7,44.4C203.8,44.3,203.7,44.3,203.7,44.4z"/>
		<path style="fill:#E6E6E6;" d="M186.9,39.4C187,39.4,187.6,38.5,186.9,39.4L186.9,39.4z"/>
		<path style="fill:#E6E6E6;" d="M192.9,39.2C192.3,39,193.4,41.7,192.9,39.2C192.8,39.1,192.9,39.4,192.9,39.2z"/>
		<path style="fill:#E6E6E6;" d="M202.4,40.7l0.2-0.1C202.5,40.6,202.4,40.6,202.4,40.7z"/>
		<path style="fill:#E6E6E6;" d="M182.7,39.4c0-0.1,0-0.3-0.1-0.3C182.6,39.1,182.6,39.2,182.7,39.4z"/>
		<path style="fill:#E6E6E6;" d="M16.3,48.4c0-0.1,0-0.1,0-0.2C16.3,48.3,16.3,48.4,16.3,48.4z"/>
		<path style="fill:#E6E6E6;" d="M9.8,43.3C9.8,43.1,10.3,42,9.8,43.3L9.8,43.3z"/>
		<path style="fill:#E6E6E6;" d="M153.1,38.4C153.1,38.4,153.1,38.4,153.1,38.4C153.2,38.3,153.1,38.3,153.1,38.4z"/>
		<path style="fill:#E6E6E6;" d="M102.8,40.9c0.6,0.8-0.9,1.1,0,2C102.7,42.5,103.5,41.4,102.8,40.9z"/>
		<path style="fill:#E6E6E6;" d="M203.6,44.3c-0.1,0-0.2,0-0.2,0C203.4,44.3,203.5,44.3,203.6,44.3z"/>
		<path style="fill:#E6E6E6;" d="M102.7,42.9C102.8,42.9,102.9,43.1,102.7,42.9C102.7,42.9,102.8,42.9,102.7,42.9z"/>
		<path style="fill:#E6E6E6;" d="M140.4,39.5c0,0.2,0.1,0.3,0.1,0.4C140.6,39.8,140.5,39.6,140.4,39.5z"/>
		<path style="fill:#E6E6E6;" d="M149.9,40.4l-0.2-0.1C149.8,40.4,149.8,40.4,149.9,40.4z"/>
		<path style="fill:#E6E6E6;" d="M135.6,40.9C134.2,40.2,136.1,41.4,135.6,40.9C135.5,40.9,135.4,40.8,135.6,40.9z"/>
		<path style="fill:#E6E6E6;" d="M130.5,41.1C130.6,41.2,131,41.5,130.5,41.1C130.5,41.2,130.5,41.1,130.5,41.1z"/>
		<path style="fill:#E6E6E6;" d="M31.9,48.8c-0.1-0.3-0.2-0.6-0.2-0.8C31.8,48.7,31,48.9,31.9,48.8z"/>
		<path style="fill:#E6E6E6;" d="M203.7,43.9C203.6,45,203.7,43.9,203.7,43.9C203.7,44.1,203.7,44,203.7,43.9z"/>
		<path style="fill:#E6E6E6;" d="M135.7,48.3l-0.8-0.1C135.1,48.2,135.4,48.3,135.7,48.3z"/>
		<path style="fill:#E6E6E6;" d="M68.6,49.2l-0.2,0.1C68.5,49.3,68.6,49.3,68.6,49.2z"/>
		<path style="fill:#E6E6E6;" d="M132.5,48.4C132.2,47.9,131.4,47.4,132.5,48.4C132.3,48.1,132.5,48.4,132.5,48.4z"/>
		<path style="fill:#E6E6E6;" d="M31.7,48L31.7,48L31.7,48z"/>
		<path style="fill:#E6E6E6;" d="M26.2,49.9c0.6-0.5,0.8-1.1,0.6-1.9c0.7,0.3,0.9,0.8,0.7,1.6c0.5-0.2,4.1-2.3,4.2-1.6
			c-0.5-1-0.4-1.7,0.4-2c0.4-0.3-0.2,1.4-0.2,1.8c0.6-0.6,1.3-0.9,2.1-0.9c0.1,1.5-0.9,0.9-1.4,0.9c0.6,1.7-0.5-0.1,0,1.8
			c2,0.7,2.1-0.6,2.6-1.7c-1.3,0.8,4.9,1.3,3.6,0c-0.1,0.4-0.2,0.8-0.3,1.3c0.4-0.6,1-0.9,1.8-0.9c-0.2,0.2-0.5,0.4-0.7,0.6
			c0.6,0.2,0.9,0,1.1-0.7c1.7,0.7,8.4,2.3,9.7,0.6c-0.3,0,3.9,0.4,4.1,0.5c1.3,0.6,11.5-0.3,12.4-0.7c0,0.3,0,0.7,0,1
			c0.2-0.4,0.4-0.7,0.7-1.1c0.1,0.4,0.2,0.8,0.4,1.2c0.6-0.1,0.7-0.5,0.1-1c0.1-0.1,2.7,0.5,3.5,0.3c-0.2,2.4-0.6-0.6,0,1.1
			c-0.3-0.9,6.3-0.3,6.6-0.3c-0.5-0.6-0.5-1.1,0-1.7c0.1,0.4,0.1,0.7,0.2,1.1c-0.1-0.4-0.1-0.8,0.1-1.2c1,0.2-0.1,2.3,2.1,2.3
			c2.2,0.1,7.1-1.8,7.4-2.4c0.2,2.6,3.1,0.6,3.4-0.3c-0.2,0.1,5.4,1.6,6,1.5c0.5-0.3,1-0.6,1.4-1c2.9,0.5,17.2,3.5,19.5-0.2
			c1.2-1.9,0.5,1.7,0.5,1.2c2.2-0.5,4.5-1,6.7-1.3c-0.9,1.9,10.6-1.6,10,0.6c2.5-0.2,5.5-1.4,8.8-2.2c0,1.5-1.7,0.3-1.6,1.8
			c0.5-0.2,4.7-3.3,3.5-0.8c1.5-0.7,4.6,0,4.5-0.9c-0.1,0.8,0.8-2.7,0.7-2.4c-0.3,1.8,1.2,0.8,0.7,2.9c0,0,1.9-1.6,1.6-0.3
			c0.6-1,5.2-2.9,5.4-0.1c0.4-0.3,2.7-1.6,1.7-1c0.4-0.1,0.8-0.2,1.2-0.3c0.1-1.9,1.4-2.1,2.2,0.1c0.6-0.5,1.2-1,1.8-1.4
			c-1.1,2.4,0.6-1.2,0.5,1.1c0.1-0.5,0.3-0.8,0.7-0.9c1.5-1.3,2.1,0.7,2.3,1.5c4.2-0.8,5.5-0.4,8.8-1.8c1,0.4,5.9,0.8,7,0.8
			c0.1-0.1,2-2.3,1.8-2.3c-0.3,0.6-0.2,1.2,0.3,1.6c-0.2-0.8,1.3-1.8,2.2-1.6c0,0.4-0.2,0.8-0.4,1.1c0.4-0.7,0.9-0.9,1.6-0.8
			c-1.2,1.3,0,1.2,1.2,1.9c0.5-1.3,1.4-1.1,2.1-2.3c-2,3.2,2.2,1.9,2.1,3c0.2-0.3,0.2-0.7-0.1-1c-0.5,0.6,5.5-2.4,5.7-2.5
			c0.8,1.1,2.4,1.6,1.8,2.7c2.3-1.4,1.1,0.8,2.3-1.7c0.4-0.1-0.1,1.8-0.6,1c-0.1-0.2,0.3-1.8-0.4-1.7c-0.5,0.4-1.1,0.7-1.6,1
			c0.1-0.5,0.2-0.9,0.3-1.4c-0.3,0.4-0.5,0.8-0.8,1.1c-0.9-1.9-0.1-1-1.3-1.4c-0.1-0.3,0-0.6,0.2-0.8c0.6,0.5-2.1-0.1-1.8-0.1
			c-0.6,0.6-1,1.3-1.1,2.2c-0.2-0.8-0.5-1.7-0.7-2.5c-0.7,1.2-0.1,0.2-0.7,1.6c-0.9,0-1.5-0.4-1.9-1.1c0.2,0.4,0.2,0.8-0.1,1.1
			c0,0.1-1.1-1.5-1.3-1.7c-0.3,1.4-4.9,0.2-5.9-0.3c-0.2,0.8-0.7,1.2-1.5,1.3c0-2.3,0.7-1.2-0.8-0.6c0-0.3,0.1-0.6,0.1-0.9
			c-0.7,0.5-1.5,0.7-2.4,0.5c0.4,1,0.4,2-0.2,2.9c-0.2-2.2-0.3-0.7,0.1-2c-0.3,0.1-0.5,0.3-0.5,0.6c0-1.9-0.1,0.1-0.8-1.9
			c0,0.1-2.2,0.7-3.2,1.4c-3.1-0.5-5.8,1-7.8-0.2c0-0.4,0.2-0.6,0.6-0.4c-0.5-0.2-2.6-0.6-2.6-0.6c0.9,0.6,0.7,0.8-0.5,0.6
			c-1-1.4-2.9,0.4-3.7-0.9c0.2,0.5,0.3,1,0.5,1.4c-4.4-0.8-0.5-0.5-3.9,1.4c-1.8-0.3,0.1-2.2,0-2.5c0.4,0.1-1.5,0.5-1.2-0.6
			c-0.1,0.1-2.4,1.9-3.4,2.2c-1-1.1-2-2.6-2.3-3.2c-1.5,1.1,0.2,0.6-1.1,2.5c0,0-2.3-1.4-0.4-1.8c-0.6,0.2-0.8,0.1-0.5-0.3
			c0.4,0.4-3.2,1.2-1.9,0.2c0.7,0-1.8,2.7-1.7,2.7c0,0-2.9-3-3.8-2.3c0.3,0.5,0.2,1-0.3,1.4c0.5-0.2,0.9-0.4,1.4-0.6
			c-0.3,0.4-0.6,0.8-0.9,1.2c2.1,0,0.5-0.8,1,0.7c-0.6-0.2-1.2-0.2-1.8,0c0-0.7,0-1.3-0.1-2c-2.8-2.2-2.5,3.8-4.4,0.1
			c-0.5,0.3-0.9,0.7-1,1.3c0.3,0-3.1,0.8-2.8,0.9c0-0.6,0.1-1.2,0.5-1.7c-1.3,0-3.2,1.5-2.7,2.4c-1.8-3.2-7.3,0.3-7.7,0.1
			c-1.9-3.4-2.7-1.2-6.5,0.3c0.3-0.4,0.3-0.8,0.2-1.3c-0.1,0.6-0.3,1.1-0.6,1.6c-1.4-1.3-1.5-1.9-0.2-1.8c-0.7-2.1-3.3,2.9-4.9,0.2
			c-0.7,0.6-1.4,1.2-2.2,1.6c1.9-4.7,1.3-1,0.7-1.6c-1,2.2-6.8-1.4-9.7-1c0.6,1.7-0.5,0.4-0.3,2.1c-1.8,0.6-1.9-2.9-2.6-3.5
			c0,0.2-0.2,1-0.1,1.7c-1.1,1-2.3-1.5-2-1.2c-4,2.4-8.7,1.7-12.7,2.8c-0.1-4.1-11.3-1.1-12.4-0.4c0.4-0.2-1.3-1.5-1.9-1.5
			c0,0.6-0.1,1.2-0.1,1.7c-0.8-1.3-5.5-1.4-6.3-0.4c-0.7-0.9-2.2-1.3-2.6-1.7c-0.6,0.9-1.1,1.8-1.6,2.8c-0.7-1.1-2-3.4-4.1-1.3
			c0.2-1.8-3.1,0.1-3.9,0.7c0-0.3,0.1-0.6,0.1-0.9c-0.2,0.8-0.7,1.4-1.5,1.8c-0.2-0.3-0.2-0.4,0.1-0.5c-0.7-0.5-3.1,1.9-3.4-0.4
			c-0.2,1.2-2.6,0.8-3.3-0.1c3,0.1,0.4-0.1,1.4-2c-2.3,2.4-2.1,0.9-4.5,0.6c-0.2,0.5-0.2,1,0,1.5c-0.2-0.2,1.9-0.2,1.3-0.2
			c-1.2,1.9,0-1.7-1.5,1.8c-0.8-2.3-3.3-4.4-4.8-0.9c-0.9,0.6,0.3-1.7,0.1-1.2c-0.9,0.1-1.6,0.5-2,1.3c-0.9-0.7-13.7-2.7-15.5-0.7
			c0-0.3-0.1-0.7-0.1-1c-2.6,1-4.8,0.5-7.2,0.8c-0.1-0.9-0.5-1.6-1.1-2.3c-1.8,0.6-2.1,6-1.1,7.1c0.1,0,1.3-0.1,1.1-0.1
			c-0.3,0.6-0.5-0.6,0.5,0.6c0.3-0.5,0.6-0.9,0.9-1.4c-0.2,0.5-0.2,1,0.1,1.5c0-0.6,0.1-1.2,0.4-1.8c0.2,0.5,1,1,0.4,1.5
			c0.6-0.6,2.8-1.5,2.6,0.4c0.3-0.5,0.7-0.9,1.2-1.1c-0.7,1.5,1.4,0.5,1.1,2.1c0.8-0.8,1.7-1.3,2.9-1.4c-0.5,0.4-0.3,0.8,0.7,1.2
			c0.2-0.9,0.7-1.7,1.4-2.3c0.1,0.9,0,1.8-0.3,2.7c0.4-0.6,0.7-1.2,1-1.9c0.3,0.4,0.5,0.9,0.6,1.5c0.1-0.6,0.4-1,0.9-1.2
			C26.7,49.1,26.1,48.9,26.2,49.9z M44.5,47.8C44.3,47.8,43.6,48,44.5,47.8C44.5,47.8,44.3,47.8,44.5,47.8z M46,47.8
			C45.1,47.6,45.2,46.8,46,47.8C45.8,47.7,45.7,47.5,46,47.8z M42.9,41.3C43.6,40.9,42.4,42.6,42.9,41.3
			C43.1,41.2,42.9,41.4,42.9,41.3z"/>
		<path style="fill:#E6E6E6;" d="M42.4,42.5C41.9,42.8,43.1,42.5,42.4,42.5C42.4,42.5,42.5,42.5,42.4,42.5z"/>
		<path style="fill:#E6E6E6;" d="M179.4,40.7C179.4,40.6,179.6,41,179.4,40.7C179.4,40.7,179.4,40.7,179.4,40.7z"/>
		<path style="fill:#E6E6E6;" d="M66.9,49.7C66.7,49.3,66.9,49.6,66.9,49.7L66.9,49.7z"/>
		<path style="fill:#E6E6E6;" d="M187.8,43.6c0,0.1,0.1,0.2,0.1,0.2C188,43.8,187.9,43.7,187.8,43.6z"/>
		<path style="fill:#E6E6E6;" d="M191.4,43.8l0.5,0.3C191.7,43.9,191.6,43.8,191.4,43.8z"/>
		<path style="fill:#E6E6E6;" d="M194.2,44.2C194.2,44.2,194.3,43.1,194.2,44.2C194.2,44,194.2,44.2,194.2,44.2z"/>
		<path style="fill:#E6E6E6;" d="M150.3,46.6c0,0-0.1,0-0.1,0C150,46.9,150.1,46.8,150.3,46.6z"/>
		<path style="fill:#E6E6E6;" d="M163.3,44c-0.1,0.2-0.3,0.3-0.4,0.5C163.2,44.5,163.3,44.5,163.3,44z"/>
		<path style="fill:#E6E6E6;" d="M135.8,48.3C135.7,48.3,135.5,48.2,135.8,48.3L135.8,48.3z"/>
		<path style="fill:#E6E6E6;" d="M162.3,44.4c0.2,0.2,0.4,0.1,0.6,0C162.7,44.4,162.5,44.3,162.3,44.4z"/>
		<path style="fill:#E6E6E6;" d="M206.2,44.5C206.3,44.4,206.5,44.4,206.2,44.5L206.2,44.5z"/>
		<path style="fill:#E6E6E6;" d="M206.3,44.4l0.1-0.1C206.4,44.3,206.3,44.3,206.3,44.4z"/>
		<path style="fill:#E6E6E6;" d="M206.8,44l-0.3,0.2C206.6,44.3,206.7,44.3,206.8,44z"/>
		<path style="fill:#E6E6E6;" d="M202.5,44.1l0,0.3C202.5,44.3,202.5,44.2,202.5,44.1z"/>
		<path style="fill:#E6E6E6;" d="M201.4,44.2C203.8,44.9,201.4,44.1,201.4,44.2C201.7,44.3,201.7,43.6,201.4,44.2z"/>
		<path style="fill:#E6E6E6;" d="M196.7,40.1c-1,0.5,3.3-1.2,1-0.7C196.6,38.4,197.9,40.2,196.7,40.1z"/>
		<path style="fill:#E6E6E6;" d="M193.8,39.6c0.5-0.2,0-0.5,0-0.7C193.5,39.2,193.4,39.3,193.8,39.6z"/>
		<path style="fill:#E6E6E6;" d="M172.9,40.1l0-0.8C172.5,39.4,172.9,39.6,172.9,40.1z"/>
		<path style="fill:#E6E6E6;" d="M169,44.6C169.8,44.8,169.6,44.8,169,44.6L169,44.6z"/>
		<path style="fill:#E6E6E6;" d="M166.5,38.7C167.2,38.5,164.9,39.2,166.5,38.7L166.5,38.7z"/>
		<path style="fill:#E6E6E6;" d="M131.4,40.3l0.2,1C131.8,41.1,131.8,40,131.4,40.3z"/>
		<path style="fill:#E6E6E6;" d="M116.3,41.9c-0.2-0.5-0.6-0.8-0.9-0.3C115.8,41.6,116.1,42,116.3,41.9z"/>
		<path style="fill:#E6E6E6;" d="M70.9,41.3C71.1,40.3,70.8,41.6,70.9,41.3L70.9,41.3z"/>
	</g>
	<g>
		<path style="fill:#E6E6E6;" d="M172.6,67.5C173,68.7,172.6,67.5,172.6,67.5C172.7,67.8,172.6,67.5,172.6,67.5z"/>
		<path style="fill:#E6E6E6;" d="M174.5,68.8c-0.3-0.8-0.6-1.5-1-2.3c0.2,0.6,0.4,1.2,0.5,1.8c-0.3-0.6-0.5-0.7-0.7-0.4
			C173.3,67.9,174.3,68.4,174.5,68.8C174.4,68.2,174.4,68.6,174.5,68.8z"/>
		<path style="fill:#E6E6E6;" d="M188.6,62.5l-0.1-0.1C188.5,62.5,188.5,62.5,188.6,62.5z"/>
		<path style="fill:#E6E6E6;" d="M197,58.2c0,0.1,0,0.2,0,0.3C197.1,58.4,197.1,58.3,197,58.2z"/>
		<path style="fill:#E6E6E6;" d="M199,58.4c0,0-0.1,0-0.1,0C199,58.5,199,58.5,199,58.4z"/>
		<path style="fill:#E6E6E6;" d="M188.6,62.5l0.4,0.2C188.8,62.4,188.7,62.5,188.6,62.5z"/>
		<path style="fill:#E6E6E6;" d="M175,65.4C174.9,65.9,175.2,65.7,175,65.4C175,65.5,175.1,65.5,175,65.4z"/>
		<path style="fill:#E6E6E6;" d="M185.4,65.4C185.4,65.5,185.6,66.5,185.4,65.4L185.4,65.4z"/>
		<path style="fill:#E6E6E6;" d="M182.7,67.2C182.8,67.2,181.3,65.2,182.7,67.2C182.8,67.2,182.6,67,182.7,67.2z"/>
		<path style="fill:#E6E6E6;" d="M177.5,68.3l0,0.2C177.5,68.4,177.5,68.4,177.5,68.3z"/>
		<path style="fill:#E6E6E6;" d="M187.5,64.4c0.1,0.1,0.1,0.2,0.2,0.3C187.6,64.6,187.6,64.5,187.5,64.4z"/>
		<path style="fill:#E6E6E6;" d="M180.2,10.8c0-0.1,0.1-0.1,0.1-0.1C180.2,10.8,180.1,10.8,180.2,10.8z"/>
		<path style="fill:#E6E6E6;" d="M180.1,5C180.3,4.8,181.1,4.1,180.1,5L180.1,5z"/>
		<path style="fill:#E6E6E6;" d="M202.2,57.9C202.2,57.9,202.2,57.9,202.2,57.9C202.1,58,202.2,58,202.2,57.9z"/>
		<path style="fill:#E6E6E6;" d="M220.7,38.5c-0.8,0.1-1.6,0.3-2.4,0.7C219.2,39.1,220,38.9,220.7,38.5
			C220.5,38.8,220.7,38.8,220.7,38.5z"/>
		<path style="fill:#E6E6E6;" d="M175.2,65.5c0,0,0.1-0.1,0.1-0.1C175.2,65.4,175.2,65.4,175.2,65.5z"/>
		<path style="fill:#E6E6E6;" d="M218.4,39.1C218.4,39.2,218.2,39.3,218.4,39.1C218.4,39.1,218.4,39.2,218.4,39.1z"/>
		<path style="fill:#E6E6E6;" d="M207.7,53.9c-0.1-0.1-0.2-0.2-0.3-0.3C207.5,53.7,207.6,53.8,207.7,53.9z"/>
		<path style="fill:#E6E6E6;" d="M202.7,55.4l0.2,0C202.8,55.4,202.7,55.4,202.7,55.4z"/>
		<path style="fill:#E6E6E6;" d="M209.3,51.5C210.1,51.7,209,51.3,209.3,51.5C209.4,51.5,209.5,51.6,209.3,51.5z"/>
		<path style="fill:#E6E6E6;" d="M211.7,50.1C211.6,50,211.4,49.9,211.7,50.1C211.6,50,211.7,50.1,211.7,50.1z"/>
		<path style="fill:#E6E6E6;" d="M186.4,15.8c0.1-0.2,0.3-0.5,0.5-0.7C186.5,15.7,186.1,15.6,186.4,15.8z"/>
		<path style="fill:#E6E6E6;" d="M175.3,65.9C174.8,64.9,175.3,65.9,175.3,65.9C175.2,65.7,175.2,65.8,175.3,65.9z"/>
		<path style="fill:#E6E6E6;" d="M205.7,45.1l0.4-0.1C206,45,205.8,45,205.7,45.1z"/>
		<path style="fill:#E6E6E6;" d="M200.2,29.7l-0.2,0C200,29.7,200.1,29.7,200.2,29.7z"/>
		<path style="fill:#E6E6E6;" d="M207.2,44.2C207.8,44.9,207.8,44.6,207.2,44.2C207.4,44.5,207.2,44.2,207.2,44.2z"/>
		<path style="fill:#E6E6E6;" d="M186.9,15.1L186.9,15.1L186.9,15.1z"/>
		<path style="fill:#E6E6E6;" d="M183.4,14.9c0.6-0.2,1.1-0.6,1.5-1.2c0.1,0.6-0.2,1-0.7,1.4c2-0.2,2.3-0.9,4.3-1.2
			c-0.1,0-0.9,0.8-1.3,1.2c0.5-0.2,1-0.2,1.5,0c-1.3,1.5-1.1-0.3-2.4,1.5c0.4,1.4,2.1-0.3,2.2-0.4c0.5,0.5,0.4,1.1-0.4,1.6
			c-0.3,0.5,1.9-0.8,1.8-0.3c-0.3,0.3-0.7,0.5-1,0.8c0.5-0.3,0.9-0.3,1.3,0c-1.4,0.9,0-0.2,0.3,0c-0.3,0.3-0.5,0.6-0.8,0.8
			c1.9,1,2.5,0.7,2.7,3.7c0.3-0.1,0.6-0.3,0.9-0.4c0.4,0.6-1.4,0.6,0.4-0.1c-0.6-0.3,1.1,1.7,1.2,1.9c0.5-0.2,1-0.2,1.4-0.1
			c0.4,0.8,1.1,4.2,2.8,2.7c-0.4,0.7-0.6,1.5-0.6,2.2c0.5-0.2,1-0.3,1.4-0.6c-0.2,0.2-0.5,0.5-0.7,0.7c0.3-0.2,0.7-0.3,1-0.5
			c-0.2,0.3-0.5,0.7-0.7,1c0.4,0.1,0.7-0.1,0.8-0.7c0.4,0.5,0.3,1.1-0.2,1.6c0.4,0,0.8,0.1,1.3,0.1c-1.8,1.6,2.3,1.8,3.1,2
			c-0.2,0.3-0.5,0.6-0.7,0.8c0.3-0.3,0.6-0.6,0.9-0.8c-0.1-0.2-2.5,5.5,2.1,2.7c-0.1,2,0.5,2.3,1.6,1c-1.5,1.6,0.5,1.9,1.6,1.1
			c-0.2,0,0.3,2.8,2,2.8c0,0.4-1.6,1,0.2,0.7c-2.2,0.8,0.1,0.6-1.4,0.6c0.3,0,1.9,0,0.2,0c0.7-0.2,1.3-0.1,1.8,0.2
			c-0.9,0.1-1.8,0.1-2.7-0.2c0.7,0.3,1.6,0.6,2.1,1c-0.2-0.2-1.5-0.4-1.5-0.7c0.6,0.4,0.3,0.7,0,1.2c-0.3-1.1-1.1-0.5-0.6,0.4
			c0,0-1.2-0.6-1.2-0.5c0.1,1.2-2.1,1.5-1.5,2.8c-1.5-2.7-0.7,2.2-1.8-0.8c-0.9,0.6-2,2.5-3.1,4.1c0-0.6,0-1.3-0.1-1.9
			c0,1-0.3,1.8-1,2.4c-0.3-0.1-2.6,0.1-2,1c-0.2-0.4,0.8,2.2,0.8,2.3c-0.6-1.3-1.2-0.9-1.8-2.4c0,0.2-0.2,1.6-0.6,0.6
			c0.1,0.3-0.7,2.9-1.4,2.8c-0.3-0.5-0.6-1-1.1-1.3c0.2,1.9-0.4,1.1-0.8,1.8c-0.2-0.3,1.6,1.6,0.8,1.5c-0.1,0.5-2.2-1.4-1.9-1
			c-0.1,0.6-0.1,1.1-0.2,1.7c-0.5-2-0.3-0.6-0.2-0.1c-1-0.5-0.8,1.5-2.4-0.4c-0.2,0.2-1.9,2.6-1.1,2.9c-0.8-0.2-0.9-0.2-1.3-0.9
			c-0.6,0.4-1,1-1,1.8c-0.3,0-3.2,0.7-3.8,1.1c-0.1,1.5,1.2,2.7-0.7,1.1c0.5,0.6,0.5,0.8,0.1,0.5c0.2,0.5,0.2,1.4-0.3,1.4
			c-0.2-0.3-0.3-0.7-0.4-1.1c0.2,0.5,0.1,0.9-0.3,1.1c-0.1-1.4-0.6-0.8-1.5-1.3c0.4,1.1-0.1,1.5,0.1,2.5c-0.3-1.4-1.1-1.2-1.5-2.3
			c0.1,0.6-0.5,1.1-1,0.2c-0.5,1.3-0.2,1.8-0.9,4.5c-1-0.9-0.8-0.5-1.7-1.4c-0.1,0.1,0.3,3-0.5-0.4c-0.6,2.8-0.9-1.3-0.3,2.1
			c-0.2-0.2-0.4-0.5-0.4-0.8c-0.1-0.6,1.1,1.3,1.2,1.1c0-0.4,0.1-0.9,0.3-1.3c0.2,0.4,0.4,0.9,0.5,1.3c-0.1-0.4-0.1-0.8-0.2-1.2
			c1,1.1,1.1,1.4,1.6,1.6c-0.6-0.3,1.1-0.4,0.9-0.4c0-0.8-0.2-1.5-0.6-2.2c0.5,0.7,1,1.3,1.6,2c-0.3-1.4,0,0-0.5-1.6
			c0.6-0.2,1.1,0,1.5,0.5c-0.3-0.3-0.5-0.6-0.5-1c0.2,0.3,0.7,0.6,1.4,1.1c-0.7-1.7,2.3-1.1,3-1.2c-0.4-0.6-0.3-1.1,0.1-1.5
			c1.2,2.1,0.2,1.2,0.7,0.3c0.1,0.3,0.3,0.5,0.4,0.8c1.9-1.4-0.9-1.9-0.5-3.6c1.4,2.2,0.4,0.2,1,1.8c0.1-0.2,0.1-0.4,0-0.6
			c0.7,1.1,0.5,0.4,1.4,1.5c-1.4-2.1,0.5-0.2,0.5-0.1c-0.4-1.3,0.3-0.1,0.3-1.9c1-0.7,2.8-0.5,2.5-2c-0.2,0.1,3.4-0.1,2.8,0
			c0.2,0.3,0.3,0.7,0.5,1c1.4,0.7,0-2.8,1.7-1.1c-0.3-0.4-0.6-0.7-1-1.1c0.6,0.3,1.1,0.6,1.6,1c0.6,0.2-0.4-3.3-0.5-3.2
			c1.1-0.2,1,1.9,1.2,2.1c-0.1,0.1,0.4-0.9,0.8,0.2c0-0.1,0.1-2.1,0.6-2.7c1.1,0.7,2,1.5,2.7,2.2c0.2-2-0.2,0.8-0.7-2.5
			c0.1,0,1.8,0.6,1.1,1.5c0.2-0.3,0.4-0.2,0.4,0.1c0.3-0.4,0.4-0.9,0.1-1.4c0.9,2,0-1.5,0.2-2c0.1,0.1,2.9,1.7,3,1.1
			c-0.4-0.3-0.6-0.7-0.6-1.3c-0.1,0.3-0.2,0.6-0.4,0.9c-0.1-0.4-0.1-0.8-0.2-1.2c-0.9,0.5,0,0.6-0.8-0.4c0.4,0,0.7-0.1,0.9-0.4
			c0.3,0.6,0.7,1.1,1,1.7c2.1,1.1-0.9-4.2,2-1.2c0.1-0.5,0.1-0.9-0.1-1.4c0.2,0.2,0.5,0.4,0.7,0.6c0.1-0.7,0.2-1.3,0.2-2
			c1,3.1,1.4-0.5,0.7-1.2c1.2,1.2,3.1-0.6,3.5-0.5c0-0.5,0.1-1,0.2-1.5c2.5,2.4,2.1,0.9,3.4-2c0.3,0.4,0.6,0.7,1,0.9
			c-0.4-0.4-0.8-0.8-1.1-1.2c2.4,0.1,3,0.4,1.8,1c1,0.4,0.8-0.4,1.6-0.1c0.5-0.4-0.4-2.4-1-2c1.7-1.3,1.7,2,1.9-1
			c0.5,0.1,3.4,0.8,1.9,0.4c0.1,0.7-0.3,0.6-1.2-0.3c1.5,1.3,3.1-1.4,3.6-1.5c-2.2-0.7-3.7-3.9-6.2-2.6c0.6-0.6,2.4-1.7,2.5-2.5
			c1.2-0.8-2.8,0-1.8,0.7c-1.5-0.1-0.2-2.2-0.3-1.9c-1.4-0.3-1.8-1.6-3.1-0.6c1-2-3.3-2.5-4.4-2.8c0.9-0.9,0.7-1.5,1-2.3
			c-1.2-1.8-3.8,0.4-3.8-3.4c-0.4,0.7-0.9,0.9-1.4,0.7c0.2,0,0.7-1.6,0.7-1.4c-0.3-0.9-1.3,0.6-1.6,0.8c0.6-1.2-1.1-3.1-2-2.8
			c0.4-1.1,0-1.3,0.3-2.2c-0.9,0.4-1.7,0.8-2.6,1.3c1.1-2.5-0.3-3.9-2.6-3.6c0.2-0.2,0.5-0.4,0.7-0.6c-0.5,0.5-1.2,0.7-1.9,0.7
			c0.1-0.6,0.2-0.4,0.2-0.8c-0.2-0.3-2.5,0.9-0.8-1c-1,0.8-1.5-0.6-1.2-1.3c1,1.1,0.7-0.2,2-0.9c-0.7,0.5-1.3,0.5-2,0.3
			c0.2-0.3,0.1-1.1-0.2-1.5c-0.4,0.3-0.8,0.6-1.1,1.1c0.1-0.3,0.7,0.4,0.7,0.4c-2,1,1.9-1.7-1.9,0.7c1.2-1.8,1.6-4.3-1.4-2.4
			c-0.4,0.1,1-0.9,0.8-0.8c-0.6-0.3-1.2-0.2-1.8,0.2c0.1-0.5-4.5-6.6-6.3-5.7c0.2-0.3,0.4-0.5,0.6-0.8c-0.4,0.2-0.7,0.4-1.1,0.6
			c-0.4-0.5-0.5-1-0.1-1.6c0,0.5-1.5-0.3-1.6-0.7c-0.4,0.1-0.7,0.2-1.1,0.3c0.4-0.7,0.7-1.4,0.8-2.2c-1.6-0.1-4.4,4.7-4.5,5.6
			c0.3-0.2,0.6-0.3,0.9-0.5c-0.1,0.2-0.7,0.9-0.6,0.9c0.7-0.6,0.7-0.4,0.2,0.4c1.9-1.3,0.3-0.8,0.4,0.4c3.3-2.4,0.7-0.1,0.5,0
			c0.8-0.4,1.8,0.3,2.1,0.4c-1.1,0.9,0.2,0.8-0.8,1.9c0.7-0.4,1.4-0.5,2.1-0.3c-0.5,0.2-0.6,0.5-0.5,1.2c0.6-0.6,1.3-1,2.1-1.3
			c-0.5,0.7-1.2,1.4-1.9,2c0.6-0.4,1.1-0.7,1.6-1.1c-0.2,0.5-0.4,0.9-0.7,1.3c0.3-0.4,0.7-0.6,1.2-0.7
			C184,14.7,184.4,13.5,183.4,14.9z M192.2,19.4C192.1,19.4,191.7,19.3,192.2,19.4C192.2,19.4,192.1,19.4,192.2,19.4z M192.7,20
			C192.5,19.6,193.2,18.7,192.7,20C192.7,19.9,192.8,19.7,192.7,20z M196.1,14.3C196.5,14.3,195,15,196.1,14.3
			C196.3,14.3,196,14.3,196.1,14.3z"/>
		<path style="fill:#E6E6E6;" d="M195.1,15C194.4,15,195.4,15.2,195.1,15C195,15,195.1,15,195.1,15z"/>
		<path style="fill:#E6E6E6;" d="M188.4,62.5C188.5,62.6,188.2,62.2,188.4,62.5C188.4,62.5,188.4,62.4,188.4,62.5z"/>
		<path style="fill:#E6E6E6;" d="M199.2,29.3C199.5,28.9,199.2,29.3,199.2,29.3L199.2,29.3z"/>
		<path style="fill:#E6E6E6;" d="M182.9,62c0-0.1-0.1-0.1-0.2-0.2C182.8,61.9,182.8,61.9,182.9,62z"/>
		<path style="fill:#E6E6E6;" d="M181.1,62.8l-0.4-0.1C180.9,62.8,181.1,62.8,181.1,62.8z"/>
		<path style="fill:#E6E6E6;" d="M179.6,63.2C179.6,63.2,180.1,64.1,179.6,63.2C179.7,63.3,179.6,63.2,179.6,63.2z"/>
		<path style="fill:#E6E6E6;" d="M199.4,50.1C199.4,50.1,199.4,50.1,199.4,50.1C199.5,49.8,199.4,49.9,199.4,50.1z"/>
		<path style="fill:#E6E6E6;" d="M194.5,55.6c0-0.2,0-0.4,0-0.5C194.3,55.1,194.2,55.2,194.5,55.6z"/>
		<path style="fill:#E6E6E6;" d="M205.6,45.1C205.6,45.1,205.8,45.1,205.6,45.1L205.6,45.1z"/>
		<path style="fill:#E6E6E6;" d="M194.7,55c-0.2-0.1-0.3,0-0.3,0.2C194.6,55.1,194.7,55.1,194.7,55z"/>
		<path style="fill:#E6E6E6;" d="M173.8,66C173.8,66,173.7,66.2,173.8,66L173.8,66z"/>
		<path style="fill:#E6E6E6;" d="M173.8,66.1l0,0.1C173.8,66.3,173.9,66.2,173.8,66.1z"/>
		<path style="fill:#E6E6E6;" d="M173.8,66.6l0-0.3C173.8,66.3,173.7,66.3,173.8,66.6z"/>
		<path style="fill:#E6E6E6;" d="M175.8,65.4l-0.1-0.3C175.6,65.2,175.7,65.3,175.8,65.4z"/>
		<path style="fill:#E6E6E6;" d="M176.2,65C174.7,65,176.2,64.9,176.2,65C176.1,65,176.4,65.6,176.2,65z"/>
		<path style="fill:#E6E6E6;" d="M180.5,67.4C180,68.8,180.3,67.4,180.5,67.4C180.5,67.4,179.8,67.6,180.5,67.4z"/>
		<path style="fill:#E6E6E6;" d="M182.1,67c-0.2,0.3,0.3,0.4,0.4,0.6C182.4,67.3,182.4,67.2,182.1,67z"/>
		<path style="fill:#E6E6E6;" d="M191.8,61.3l0.4,0.7C192.3,61.8,192,61.8,191.8,61.3z"/>
		<path style="fill:#E6E6E6;" d="M191.4,56.4C190.4,56.4,191.5,56.5,191.4,56.4L191.4,56.4z"/>
		<path style="fill:#E6E6E6;" d="M195.6,61C195.3,61.4,196.1,60.1,195.6,61L195.6,61z"/>
		<path style="fill:#E6E6E6;" d="M211.7,51l-0.6-0.9C211.1,50.4,211.6,51.4,211.7,51z"/>
		<path style="fill:#E6E6E6;" d="M220,45c0.8,0.2,1.5,0.1,1-0.2C220.7,44.9,220,44.9,220,45z"/>
		<path style="fill:#E6E6E6;" d="M206.7,25.1C207.5,24.6,206.7,25.2,206.7,25.1L206.7,25.1z"/>
	</g>
</g>
</svg>
