<?xml version="1.0" encoding="utf-8"?>
<!-- Generator: Adobe Illustrator 19.1.0, SVG Export Plug-In . SVG Version: 6.00 Build 0)  -->
<svg version="1.1" id="Layer_1" xmlns="http://www.w3.org/2000/svg" xmlns:xlink="http://www.w3.org/1999/xlink" x="0px" y="0px"
	 viewBox="496 84.4 1191.2 32.4" style="enable-background:new 496 84.4 1191.2 32.4;" xml:space="preserve">
<g>
	<path style="fill:#B22222;" d="M1671,107.7c0.6-1.2,0.2-1.9-1.1-2.2c-1,0.8-1.5,1.8-1.5,3.1C1669.5,108.2,1671.3,107.5,1671,107.7
		C1671.7,106.6,1670.1,108,1671,107.7z"/>
	<path style="fill:#B22222;" d="M1659.7,102.2c-2.3,1.6-4.1,4.5-3,7.3c4.8-7.6,6.7-0.7,10.5-4c1.6-1.4-5.9-2.5-7.6-1.1
		C1658.5,102.8,1659.6,102.5,1659.7,102.2C1657,104,1659.6,102.6,1659.7,102.2C1657.4,103.8,1659.6,102.7,1659.7,102.2z"/>
	<path style="fill:#B22222;" d="M1495.4,97.2l1.1,0.5C1496.2,97.2,1495.9,97.2,1495.4,97.2z"/>
	<path style="fill:#B22222;" d="M1393.7,95.4c0.8,0,1.1-0.5,1.1-0.5C1394.1,94.9,1393.5,94.9,1393.7,95.4z"/>
	<path style="fill:#B22222;" d="M1376.3,91.7c0.4,0,0.7,0,1,0C1376.9,91.7,1376.5,91.7,1376.3,91.7z"/>
	<path style="fill:#B22222;" d="M1495.4,97.2l-2.7-0.9C1492.5,97.2,1494.1,96.7,1495.4,97.2z"/>
	<path style="fill:#B22222;" d="M1637.1,109.5c0.6,0,1-0.5,1.5-0.9C1638,108.6,1637.5,109.2,1637.1,109.5z"/>
	<path style="fill:#B22222;" d="M1540.3,94.4c1,0.3,1.2-0.6,1.5-1.4C1541.3,93.5,1540.8,94,1540.3,94.4z"/>
	<path style="fill:#B22222;" d="M1574.7,94c-1,0-1.1,3-1.3,3.7C1573.9,96.3,1574.6,93.8,1574.7,94C1573.7,94,1575,94.9,1574.7,94z"
		/>
	<path style="fill:#B22222;" d="M1629.4,98.5l1-0.5C1630.1,98.5,1629.6,98.5,1629.4,98.5z"/>
	<path style="fill:#B22222;" d="M1515.7,94c-0.1-0.5-0.2-0.9-0.3-0.9C1515.4,93.1,1515.5,93.5,1515.7,94z"/>
	<path style="fill:#B22222;" d="M552.6,114.1L552.6,114.1C552.4,114.1,552.3,114.1,552.6,114.1z"/>
	<path style="fill:#B22222;" d="M512.7,100.8c0.9,0,0.7-0.6,0.7-1.4C513.1,99.9,512.9,100.4,512.7,100.8z"/>
	<path style="fill:#B22222;" d="M1344.5,88.5C1344.6,88.5,1344.6,88.5,1344.5,88.5C1345.5,88.1,1345,88.1,1344.5,88.5z"/>
	<path style="fill:#B22222;" d="M1052.5,90.3c3.3,2.3-5.4,3.2-0.4,5.9C1051.7,94.9,1056.7,91.7,1052.5,90.3z"/>
	<path style="fill:#B22222;" d="M1636.2,109.5c-0.5,0-0.9,0-1.4,0C1635.4,109.5,1635.8,109.5,1636.2,109.5z"/>
	<path style="fill:#B22222;" d="M1052.1,96.3c0.2,0.2,0.3,0.3,0.5,0.5C1052.4,96.3,1052.3,96.3,1052.1,96.3z"/>
	<path style="fill:#B22222;" d="M1271.2,89.9c0.1,0.5,0.4,0.9,0.7,1.4C1271.9,90.8,1271.8,90.3,1271.2,89.9z"/>
	<path style="fill:#B22222;" d="M1325.8,94l-1.3-0.5C1325,93.5,1325.4,94,1325.8,94z"/>
	<path style="fill:#B22222;" d="M1242.9,94c-0.7-0.2-1.3-0.2-2,0C1241.3,94.7,1242.9,94,1242.9,94C1242.2,93.8,1242,93.5,1242.9,94z
		"/>
	<path style="fill:#B22222;" d="M1213.4,94c0.5,0,0.6,0.5,1.4,0.5C1214.3,94.3,1213.8,94.1,1213.4,94z"/>
	<path style="fill:#B22222;" d="M642.2,112.7c-0.6-0.9-1-1.4-1.4-2.3C641.3,112.2,637,113.1,642.2,112.7z"/>
	<path style="fill:#B22222;" d="M1637.1,108.1c-0.3,0.5-0.6,0.9-0.9,1.4C1637.1,109.3,1637.4,108.8,1637.1,108.1
		C1636.8,108.6,1637.3,108.1,1637.1,108.1z"/>
	<path style="fill:#B22222;" d="M1241.7,115l-4.7-0.5C1238.3,115,1240,115,1241.7,115z"/>
	<path style="fill:#B22222;" d="M853.9,112.2l-1.1,0.5C853.2,112.7,853.6,112.7,853.9,112.2z"/>
	<path style="fill:#B22222;" d="M1223.1,115c-0.9-1-2.5-2.5-3.2-0.9C1220.9,114.4,1222,114.7,1223.1,115z"/>
	<path style="fill:#B22222;" d="M640.9,110.4L640.9,110.4L640.9,110.4z"/>
	<path style="fill:#B22222;" d="M610,116.8c3.2,0,2.4-4.4,4.7-5.3c0.8-0.3,2.7,3.8,3.1,3.7c1.3-0.2,3.4-2,4.6-1.9
		c1.6,0,18.5-2.6,18.5-2.8c-1.9-5,4.7-7.9,2-3.6c0.8-0.4,1.6-0.6,2.5-0.5c1.2,0.5-3.3,2.9-3.3,3.2c1.4-0.3,10.7-5,11.9-2.4
		c1.6,3.4-9,2.1-7.9,2.4c2.1,2.8-1.9,3.3,3.9,5.2c7.6,2.5,8.7-5.5,11.7-5.8c4.9-0.4,6.7,4.9,10.9,4.6c2-0.2,12.3-11.5,7.8-1.2
		c4.1,0.3,5.7-4.6,10-2.7c-0.3,0.4-3.9,2-4.1,1.7c-0.1-0.3,7.6,0.1,7,0.2c6.3-0.1,14-1.9,21.2-2.8c-1.5,3.4,33.5,5.7,34,4.5
		c-0.3-0.8-0.2-1.6,0.2-2.4c1.8-0.2,2.3,0.4,1.5,2c3.4-1.3,24.7-2.9,22.5-1.4c0,0,11.6-3,9.4-2.7c10.5-1.4,21,2.4,31.1,2.7
		c5.8,0.2,10.2-2.4,15-1.7c3,0.4,6.1,2.5,9.2,2.9c3.5,0.5,6.7-7.3,6.9-0.7c9.4-7.7,0.5,2.3,8.7-0.5c-2.1-0.4-2.3-1.3-0.7-2.6
		c2.8-0.3,5.3,0.4,7.5,2.1c3.9,0.1,6.6,0.7,11.5-0.4c-0.2,1.5-2.2,1.6-3.2,2.3c3.5-2.1,13.5-1.5,18.5-0.9c3.8,0.5,16,0.9,23.1,0.9
		c-3.1-0.9-0.8-7.9,1.1-1.8c0.1-1.1,0-2.1-0.2-3.2c0.3-1.1,5.6,1.8,1.2,4.1c3.7-0.9,15.4,3.8,25,1.7c5.3-1.1,8.8-3.9,14.2-4.1
		c9.9-0.3,9,4.4,15.9-2.2c0.4,3,5,3.6,6.3,3.9c3.1-0.2,6.1-0.5,9.2-1c6.1,0.8,7.6-0.2,4.6-3c-0.2,0.6,18.2,4.4,21.3,4.9
		c5.7,1,8.1,0.4,13.5-0.6c1.7-0.3,6.5-3.1,8.6-2c-0.4,0.8-0.7,1.7-1,2.5c-0.1-3.1,55.7,2.2,54.5,1.8c-0.9-6.2,22.2-2.1,26.7-1.6
		c7.4,0.9,18.2,4.9,25.6,3.1c2.4-0.6,15.6-9.7,9.3-1c12.8-3.6,26.3,0,39.2-3.2c-0.4,0.9-1.1,1.5-2,1.8c2.1,1.8,10.4,0.1,11.5,0.1
		c0.7,0,9.4,1.3,7.2,1.3c4.2-2.1,27.6-0.3,28.3-4.6c-0.4,5,9.2,3.1,11.4,1.4c-2.2,3,8.7,5.1,7.4,0c2.6,2.1,13.3,1.8,16.5,1.7
		c9.5-0.4,19.1-3.5,28.7-4.5c-0.3,4.7-10.2-0.1-9.8,5c3.9-0.8,18.3-8,22.1-4.8c0.7,1.5,0.1,2.5-1.7,2.9c5.1-1.1,10.3-0.4,15.4-0.7
		c1.1-0.1,12.6-1.8,7.6,0.3c1.6,0.5,2.7,0.1,3.4-1.4c-5.1,1.6,4.9-7.3,4.8-6.8c-1.9,4.1,6.4,3.6,3.6,8.7c1.3-0.5,1.9-1.4,2-2.7
		c1.5,0.7,1.6,1.6,0.5,2.7c0.3,0,12.5-6,7-0.9c2.7-2.3,5.7-3.2,9.2-2.7c0,0.7-0.3,1.2-1,1.4c7-0.4,13-4.5,20.2-3.2
		c1.6,0.3,1.7,5.3,7.3,4.1c-3.5-3.8,6.3-4.1,8.5-3.2c-0.9,0.5-1.9,0.9-2.8,1.4c2.3-0.2,4.7-0.3,7-0.5c-1.3-0.5-2.6-0.9-3.9-1.4
		c5.4-2.6,2.7-2.4,9.2-2.2c1.8,0.1,4.2-1.4,5.9-0.9c4,1-0.6,3,1.5,4.9c1.3-2.3,4.8-2.3,6.9-2.4c5.5-0.2,1.3-3.5,3.5,1.4
		c0.3-1,0.9-1.7,1.8-2.1c1.1,0.5,1.6,1.4,1.4,2.6c3.6,0.3,0.3-4,4.5-2.7c-4.8,2.5,15.8-1.8,16.6,1.3c-0.8,1.1-2,1.8-3.4,2
		c0.2-0.4,23.6-2.5,25-2.5c-5.2-1.6,9.5-1.1,8.4-0.5c-6.2,2.8,19-0.4,18.3-0.5c-2.9,0,15.7,5.3,12.7-0.5c9.3,6.4,20.5-4,29.7,2.3
		c-0.9,0.1-1.6,0.5-2.1,1.3c0.4,1,7.6-1.1,8.3-1.3c-0.9-3.4-4.3-5.5,2.6-5.5c-3.2,1.2,0.4,3.9,1.6,4.6c0-0.8,0.1-1.5,0.1-2.3
		c-0.3-0.3,12.9-1.8,12.6-1.3c-0.9,0.6-1.8,1.4-2.5,2.2c2.9,0,6.4-5,9.4-2.3c-1.6,0.5-3.2,0.9-4.8,1.4c2.9,2.9,7.5,3.2,11.3,4.1
		c-5-3.3,12.3-6.3,12.4-6.4c-9.8,7.6,12.1,8.1,11.8,9.1c3.6-1-3.9-3.4,2.8-3.6c4.1-0.1,8,1.8,12.1,1.3c3.3-0.3,16-8.6,17.9-7.2
		c0.7,1.5,0.2,2.6-1.5,3.1c3.7,1.5,18.1,0,12.1,4.6c2.9-1.2,5.9-2.4,8.8-3.7c-0.3,1.7-1.2,3-2.9,3.7c2.9-0.8,8.4-0.6,9.8-4.1
		c-0.2-0.1-6.6,3.6-6.6,0.8c-0.1-5,1.8,0.1-4-2.9c-3.2-1.7-9.7,8.3-5.2-2c-1.2,1.5-2.7,2.5-4.6,2.8c-1-1.3-0.8-2.4,0.7-3.2
		c-2.3-1.4-6.3-0.9-8.3,0c-0.2-1.2,0.2-1.9,1.3-2.3c-0.6-0.3-11.7,0.6-10.4-0.5c-4.1,0.7-3.3,4.4-6.4,6.4c-1.3-2.4-2.5-4.9-3.8-7.3
		c-0.8,3.3-3.1,2.5-2.7,1.4c-1.4,0.9-11.2,6.5-12.3-0.5c-0.2,1,0.1,1.8,0.9,2.3c0.2,0.8-8.5-1.5-8.7-0.9c1.3-0.9,1.4-2,0.3-3.3
		c-0.7,1.5-17.3,2.3-20.3,2.2c-4.2-0.1-8.6-2.6-12.7-2.5c-1.6,0-7,2.3-9.9,3c0.1-1.8,1-3,2.6-3.7c-2.4,0.4-4.8,1.2-7,2.3
		c1.7-5.9-8.7,0.1-13.1-1.4c-0.4,3.1,3.4,7.1-1.4,8.7c-0.6-4.3,3-3.3-1.6-3.7c0.8-0.8,1.5-1.5,2.3-2.3c-0.6-0.2-5.5,3.6-4.5-0.9
		c0.8,0.4,1.7,0.4,2.5,0c-2.3-0.2-4.2-1.1-5.8-2.7c0.5,2.3-7.4,1.6-8.7,1.4c-3.1-0.4-7.2,1.1-10,1.8c-7.4,1.7-15.4-1.5-22-1.4
		c-10,0.2-14.5,3.3-23.1,0c1.8-1,1.1-1.4,3.3-1.4c-3-0.7-8.6-0.3-9.8-0.5c-1.2-0.2-2.2-2.6-5.1-1.4c1,0.6,1.9,1.2,2.9,1.8
		c-8.5,1.8-2.9-3.8-9.9-4.1c-5.7-0.3-12.1,6-17.3,0.9c-1.3,1.3,4.2,3.3,2.5,3.8c-3.2,0.8-6.3-4.2-9-4.4c-4.7-0.5-8.3,3.6-10.6,4.6
		c-11.2,5.2-1-2-2.7-3.5c-0.8,3.2-7.7-3.3-7.9-0.9c0.5,0.8,1.2,1.3,2.2,1.4c-4.3-1.5-8.9-0.2-13.2-1.4c5.2,2.7-20.6,4.2-11.4-2.3
		c-4,1.9-7.8-1.2-11.6-1.8c0.8-0.3,1.7-0.6,2.5-0.9c-4.3-0.7-5.1,0.2-2.6,2.7c-1.2,0.1-2.1-0.4-2.7-1.4c0.1-0.1-6.5,13.2-8.5,4.1
		c4,0.6,1.1-3.3,4.6-3.7c-2.2,1-4.2-0.7-6.4-1c-1.5,1.6-3.3,2.7-5.5,3.2c0.3-1.9-0.5-2.8-2.4-2.7c3.8,0-5.5,5-7.4,5
		c5.6,1.1-2,2.1-3.2,2.3c-0.1-0.4,1.3-1.7,1.7-1.2c-0.8-0.9-21-6.5-23.4-5.6c1,2,0.4,3.4-1.8,4.1c2.7-0.6,5.5-1.2,8.2-1.8
		c-1.8,1.1-3.5,2.1-5.3,3.2c2.2-0.6,4.4-0.9,6.7-0.9c-1.6,0.7-2,1.7-1.1,3.2c-3-3.2-5.1,1-8.3,0.1c-4.6-1.4,0.4-3.4-2.3-4.5
		c-6.7-3-11,1.1-18.1-0.1c0.8,0.3,1.7,0.6,2.5,0.9c-1.9,4.4-9.7-1.3-12.4-1.6c-0.8,0.4-1.5,0.8-2.3,1.1c-1,2.8-2.8,2.8-5.5-0.2
		c-3.6,1-8.6,4.8-12.1,4.3c0.5-2,1.5-3.7,3.1-5c-2.6,0-18.6,4.4-15.9,6.8c-5.5-5.3-31.3-4.8-35.1-4.1c1.1,0.4-13.2,3.5-10.1,1.8
		c0.8,0,1.6-0.2,2.3-0.6c1.1-3.6-13.5-2.9-11-3.5c-5.1-3.6-23.1,5-28.1,5.9c2.3-1.5,2.7-2.7,1.3-3.5c-2.1,3-7.8,6.7-8.9-0.6
		c1.4,0,2.8,0,4.2,0c-6.2-9.4-24.7,11.9-28.3,0c-4.4,1.6-8.6,3.6-13.2,4.6c2.9-3.2,7.4-3.9,11-5.9c-2.9,0-7.8-0.4-9.7,2.3
		c0.8-0.4,2.2-1.4,3.2-0.9c-8.9,8.1-14.8,0.4-24.8-1.3c-9.8-1.7-21-3.3-31.2-2.8c1.5,2.3-2.6,5.7-4.4,6.1c-1.7,0.3-6-1.9-6.9-2.5
		c-3.6-2.4,0.8-1.9,0.3-4c-2.3-0.8-4.1-2.2-5.6-4.1c0.9,2.9-3.4,2.7-4.8,2.3c10.1,6.6-6.2-0.5-9.4,0.9c0.8-0.6,1.5-1.2,2.3-1.8
		c-5.7,1.4-13.2-0.7-17.5,4.6c-1-1-1-1.9,0.1-2.7c-1.5-0.1-27.8,4-26.2,0.9c-2,0.5-9.5,2.7-11.8,1.8c5.9-5.6-13.3,2.9-15.2,2.7
		c-5.5-0.5-7.6-4.8-14.2-6c-8.3-1.5-15.7,4-23.9,4.1c-9.1,0.1-23.1-1.6-31.8-4.1c3.8,2.5-6.9,3.9-7.4,3.8c-1.5-0.1-8.5-10.1-9.9,1.2
		c-6.5-5.1-14.4-1.5-21.6-1.6c-6.6-0.1-8.7-3.7-15,0.2c0.2-6.1-13.2-3.4-16.8-3.2c0.5-0.6,1.1-1.2,1.6-1.8c-4.5,0-3.3,5.5-6.6,6.2
		c-8.1,1.7,2.5-1.5-3.9-1.8c-7.5-0.3-15.1-4.5-22.8-0.7c0.3-4.8-11.7-2.7-10.8,0.9c-0.2-7-13,6.3-11.3-1.4c-3.3,3.1-6.1,5.2-7.8,4.1
		c-2.2-0.8-9.8,3.4-5.8-0.9c-3.9,0-12.1,6.9-13.7-0.5c-1,2.6-16.1,3-19.1-0.5c1.6,0,7.9,1.7,9,0.5c0-2.8-3.5-3.5-0.9-6.4
		c-10.1,5.4-10.9,1.6-19.7,2.2c-10.3,0.7-6.4,3.3,1.3,3.3c-3.7,3.2-5.4,0.6-8.6,5.5c-4.3-5.7-8.5-7.5-15.2-7.3
		c-4.9,0.2-12.6,6.7-15.7,2.7c0.9-0.4,2.3-0.4,2.9-1.4c-3.2,1.2-10.4-0.6-11.6,4.1c-3-1.2-2.4-3.8-6.8-4.6
		c-10.6-2-18.8,8.7-29.8,2.8c4,1-13.1,0.6-15.6,0.7c-5.5,0.2-11,1-16.5,0.7c-3.6-0.2-9.4-2.3-12.8-2c-4.2,0.3-8.2,3.5-9.4-0.3
		c-5.4,6.4-6.8,5.1-14,4.2c-1.7-0.2-12.5-4.1-9.3,1.3c-8.6-1.4-13.5,0.2-20.6-1.2c-3.4-0.6-4.1-6.8-10.5-1.5
		c-4.1,3.4,1.5,2.5,1.2,5.3c-0.3,2.9-7.6,4.9-1.7,10.5c3.5,3.4,7.1-1.4,9.6,2.4c-1.3,0-2.7,0-4,0c3.4,2.7,9.2-0.3,12-2.7
		c0.2,0.5-1.2,5,0.7,4.6c1.5-0.3-0.2-4,1.6-4.6c0.2-0.1,7.7,1.6,3.3,3.6c1.6-0.9,15.6-5.4,15.3,0.9c1.7-1.9,3.9-3.1,6.4-3.7
		c-2.6,3.3,7.9,2.1,7.1,5.9c3.5-5.4,11-2,15.9-4.6c-1.2,1.9,1.5,2.2,4.4,3.6c0.2-1.9,4.6-6.8,6.7-6.2c4.5,1.4-1.4,4.2-0.4,7.1
		c-0.1-1.9,6.1-3.6,5-5.5c1.6,1,2.9,2.4,3.8,4.1c0.5-5,9.5-1.9,10.8-0.4C611.8,115.9,611,116.5,610,116.8
		C613.4,116.8,610.4,116.6,610,116.8C614.7,116.8,610.4,116.6,610,116.8z M714.3,108.6c-0.7,0-1.5,0-2.2,0
		C712.6,109,713.2,108.6,714.3,108.6z M723.1,108.6c-0.4,0-4.7,0.9-3.8-1.1C720.8,107,722,107.4,723.1,108.6c-0.5,0.1-0.8,0-0.8-0.4
		C724.7,109.4,721.1,107.2,723.1,108.6C722.1,108.6,721.8,107.7,723.1,108.6z M704.5,89.9c0.7,0.3,1.3,0.6,2,0.9
		c-1.1-0.2-1.9,0.1-2.6,0.9C703.9,91.7,704.7,89.3,704.5,89.9C705.5,89.5,704.3,90.3,704.5,89.9z"/>
	<path style="fill:#B22222;" d="M702,93.5c-0.8,0,0,0.9,0.7-0.5C702.4,93.2,702.2,93.4,702,93.5C701.2,93.5,702.3,93.6,702,93.5z"/>
	<path style="fill:#B22222;" d="M1496.7,97.6c0-0.2,0.1,0.1,0.2,0.5C1496.9,97.9,1496.9,97.7,1496.7,97.6z"/>
	<path style="fill:#B22222;" d="M844.1,113.6c0.1-0.7-0.1-0.7-0.8,0C843.5,113.6,843.8,113.6,844.1,113.6
		C844.2,112.9,843.8,113.6,844.1,113.6z"/>
	<path style="fill:#B22222;" d="M1545,106.8c0.1,0,0.3,0.5,0.6,0.9C1545.6,107.2,1545.3,106.8,1545,106.8z"/>
	<path style="fill:#B22222;" d="M1565.8,107.2l2.9,0.9C1567.5,107.7,1566.6,107.7,1565.8,107.2z"/>
	<path style="fill:#B22222;" d="M1581.9,108.6c0.2-0.4,0.3-0.9,0.3-1.4C1582.1,107.7,1582,108.1,1581.9,108.6z"/>
	<path style="fill:#B22222;" d="M1326.9,111.8c-0.2,0-0.4,0-0.6,0C1324.8,112.2,1325.8,112.2,1326.9,111.8z"/>
	<path style="fill:#B22222;" d="M1402.8,105.4c-0.8,0.5-1.6,0.9-2.4,1.4C1401.7,107.2,1402.7,107.2,1402.8,105.4z"/>
	<path style="fill:#B22222;" d="M1242.2,115c-0.2,0-0.3,0-0.5,0H1242.2z"/>
	<path style="fill:#B22222;" d="M1396.8,106.8c1.3,0.5,2.5,0.5,3.5,0C1399.2,106.8,1397.9,106.3,1396.8,106.8z"/>
	<path style="fill:#B22222;" d="M1651.4,110c0.5,0,0.9-0.5,0.9-0.5C1652,109.6,1651.6,109.8,1651.4,110z"/>
	<path style="fill:#B22222;" d="M1652.2,109.5l0.9-0.5C1652.7,109,1652.3,109,1652.2,109.5z"/>
	<path style="fill:#B22222;" d="M1654.9,108.6l-1.8,0.5C1653.7,109,1654.5,109.5,1654.9,108.6z"/>
	<path style="fill:#B22222;" d="M1630.1,108.6l-0.2,0.9C1630,109.5,1630.1,109,1630.1,108.6z"/>
	<path style="fill:#B22222;" d="M1623.7,109c1,0.3,6.4,3.3,6.2,0.5c-1.5,2-5-1.4-5.1-1C1624.6,108.3,1623.9,108.8,1623.7,109
		C1624.7,109.4,1625.1,107.2,1623.7,109z"/>
	<path style="fill:#B22222;" d="M1596.8,96.7c1.8,0.3,3.6,0.6,5.4,0.9c-1.4-1.1-1.3-2.1,0.3-2.7
		C1599.9,93.7,1597.3,96.8,1596.8,96.7C1598.6,97,1597.5,96.8,1596.8,96.7z"/>
	<path style="fill:#B22222;" d="M1580,95.4c2.9-0.5,0-1.4,0.1-2.3C1578.3,94,1577.8,94.4,1580,95.4z"/>
	<path style="fill:#B22222;" d="M1458.9,95.4l0.3-2.3C1456.9,93.1,1459.2,94,1458.9,95.4z"/>
	<path style="fill:#B22222;" d="M1435.7,108.1c1.8,2.1,2.9,1.8,3.2-0.9C1427.3,110.5,1438.8,107.2,1435.7,108.1
		C1436.4,108.6,1436.7,107.8,1435.7,108.1z"/>
	<path style="fill:#B22222;" d="M1422,90.3c0.3,0,0.7,0,1,0c-1.2,0.3-2.5,0.6-3.7,0.9C1434.7,86,1419.9,91,1422,90.3
		C1422.3,90.3,1421.1,90.6,1422,90.3z"/>
	<path style="fill:#B22222;" d="M1218.6,91.2l0.7,3.2C1220.8,94,1221.1,90.3,1218.6,91.2z"/>
	<path style="fill:#B22222;" d="M1130.8,94.4c-1-1.4-3.4-2.3-5-0.9C1127.8,93.5,1129.8,94.9,1130.8,94.4z"/>
	<path style="fill:#B22222;" d="M867.4,89.4c0.6-0.3,1.2-0.6,1.8-0.9c-1.1,0.3-2.2,0.6-3.3,0.9C865.2,89.4,867.7,89.4,867.4,89.4
		C868,89.1,866.9,89.4,867.4,89.4z"/>
</g>
</svg>
