<?xml version="1.0" encoding="utf-8"?>
<!-- Generator: Adobe Illustrator 19.1.0, SVG Export Plug-In . SVG Version: 6.00 Build 0)  -->
<svg version="1.1" id="Layer_1" xmlns="http://www.w3.org/2000/svg" xmlns:xlink="http://www.w3.org/1999/xlink" x="0px" y="0px"
	 viewBox="0 0 120.9 183.7" style="enable-background:new 0 0 120.9 183.7;" xml:space="preserve">
<g>
	<path style="fill-rule:evenodd;clip-rule:evenodd;fill:#DCDCDC;" d="M21.3,106.1c2.1,1.1,4.2,1.9,6.4,2c5.3,0.4,9.6,3.8,14.6,4.5
		c-2.1,3.8-4.2,7.3-6,11c-1.2,2.4-3.3,4.5-2.8,7.6c0.8,1.2,0.8,1.2-0.9,1.7c-0.8,0.5-0.6,0.9,0.2,1.1c0.9,0.3,1.9,0.3,2.8,0.1
		c1.1-0.7,1.1,0.5,1.5,0.9c4.1-0.5,6.2-3.4,7.9-6.8c-0.1-0.5-0.2-1-0.3-1.5c-0.9,0.5-1.9,1-2.8,1.5c-0.9,2.6-2.1,0.2-3.1,0.1
		c-0.2,0.3-0.4,0.6-0.7,0.3c-0.3-0.3,0-0.6,0.2-0.8c0.2-0.5,0.4-1.1,1-1.4c0.3-0.3,0.5-0.3,0.8,0l0-0.1c1.3-4.9,3.7-9.2,6.8-13.1
		c0.1-0.1,0.2-0.1,0.3-0.2l0.2-0.1c0.1-2.3,0.4-2.4,2.9-1.6c-0.5,3.5,2.1,6.1,2.9,9.2c0,0.7,0,1.5,0,2.2c-1.1-0.6-1.1-2-2-2.9
		c-0.3,1.4,0.6,2.5,0.7,3.7c0,0.3,0.5,0.5,0.8,0.7c0.1,1,0.1,2.1,0.2,3.1c-2.5-0.9-2.2-3.4-2.7-5.3c-0.6-2.3-0.7-4.7-0.8-7.1
		c-0.1-1.4-0.5-2.2-1.9-2.2l-0.2,0.1c1.4,2.9,1.2,6.2,1.7,9.3c0.5,3.2,1,6.6,3.9,8.8c-0.1,0.4-0.2,0.9-0.3,1.3
		c0.7,3,2.3,5.6,2.4,8.9c0,3.4,0.8,6.8,1.2,10.2c0.4,3.3,0.5,6.6,1,9.9c0.5,3.4,0.5,6.8,0.7,10.3c0.1,3.2-0.3,6.5,0.4,10.2
		c2.1-1.7,2.6-3.7,2.6-5.6c0-12.4,2-24.6,3.8-36.8c0.9-6.3,2-12.5,3-18.8c2.5,1.2,4.2,3.4,6.3,5.1c2.3,1.8,4.3,4.3,7.5,4.5
		c0.3-0.8,0.1-1.4-0.3-2.1c-2.1-1.7-4.3-3.5-6.5-5.2c-2.1-1.6-4.1-3.3-6.9-3.4c-0.3-2.7,0.4-5.4,0.7-8.1c0.3-1,0.4-1,1.5,0
		c8-1,15.8-3.5,23.7-5c6.7-1.3,13.2-3.3,19.7-5.1c0.2-0.7,0.8-0.8,1.4-0.8c0.7-0.7,1.5-1.1,2.4-1.3c-0.1-0.2-0.1-0.4,0-0.6
		c-4.8-0.3-9.6,0.4-14.4-0.1c-1.8-0.2-3.8,0-5.1-1.1c-1.6-1.5-3.4-1.6-5.2-2.1c-3.2-0.9-6.8-0.5-9.5-2.3c-2.8-1.9-5.9-1.9-8.8-2.6
		c-0.8-0.2-1.7-0.4-2.4,0.4c-0.5-2-0.5-4-0.4-6c3.2-2.9,6-6.2,8.9-9.3c1-1.2,1-3.2,3.1-3.8c0.4,2.2-0.9,3.5-1.9,5
		c-1.9,2.5-3,5.3-3.2,8.5c-0.1,0.8-0.1,1.6,0.9,1.8c0.7,0.1,1.1-0.4,1.4-1c0.3-0.7,0.8-1.3,1-2c2.2-5.5,4.6-10.8,7.2-16
		c0.2-0.3,0.4-0.7,0.5-1c0.4-1.2-0.3-1.5-1.3-1.7c-1.3-0.2-1.2,1-1.8,1.5c-0.3,1-0.9,1.5-1.9,1.1c-1,0.2-1.8,0.8-2.5,1.6
		c-3.7,3.8-7.5,7.6-11.2,11.4c0,0.9-0.7,1.4-1.3,2c-1,1.1-2,2.1-3,3.2c0.1,0.3,0.3,0.6,0.4,0.8l0,0c0,2,0.6,3.9,1.7,5.6
		c-0.2,1.1,0.1,2,1.4,2.3c1.9,0.4,3.7,0.9,5.6,1c2.4,0,4.8,0.5,7.1,1.3c1.3,0.5,2.6,1.1,4,0.5c0.5-0.2,1-0.2,1.4,0.1
		c2.5,1.7,5.4,2.1,8.2,2.9c0.3,0.1,0.6,0.5,0.9,0.8c-7.9,1.9-15.6,3.7-23.3,5.6c-0.2,0.1-0.5,0.1-0.7,0.1c-6.7,1.7-6.9,2-7.9,8.7
		c-1.7,11.7-3.5,23.4-5.2,35c0,0.3-0.2,0.6-0.6,1.7c-0.9-6.4-1.5-12.1-2.5-17.7c-0.8-5-1-10.1-3-14.8c-0.9-2.8-1.2-5.8-2.7-8.4
		c0-1.2-0.1-2.3-1.6-2.6c-0.6-0.1-1.2-0.6-1.8-0.6c-5.2,0-10.1-2.1-15.3-2.1c-0.5,0-1-0.2-1.4-0.5c-2.7-1.6-5.7-2-8.7-2.8
		c0.7-1,1.7-1,2.7-1.2c7.4-1.8,14.8-3.5,22.2-5.3c0.4-0.1,0.8-0.1,1.1-0.2c3.2-1,5.3-2.5,5.8-6.4c1.5-11.6,3.4-23.1,5.2-34.7
		c-0.2-1.4-0.1-2.6,1.1-3.9c0.2,1.2,0.4,2.2,0.2,3.2c1.3,8.6,2.2,17.3,3.9,25.8c0.2,0.9,0.2,1.8,0.7,2.5c-0.2,1.3,0.5,2.4,1.2,3.4
		c1-1.1,2-2.1,3-3.2c0.6-0.5,1.3-1,1.3-2c-1.3-3-2.1-6.2-3.9-9c0.4-2.3-1.3-4.1-1.5-6.2c-1.6-13.4-3.8-26.7-3.6-40.2
		c0-0.8-0.1-1.5-0.1-2.3c-0.1-0.6-0.4-0.9-1-0.9c-0.5,0-1,0.2-1.1,0.8c-0.3,1.9-0.9,3.7-0.9,5.6c-0.1,4.1,0,8.1-0.5,12.2
		c-1.2,9-2.3,17.9-3.6,26.9c-0.6,4.6-1.5,9.1-2.3,13.8c-4.4-1.9-7.8-4.3-10.2-8.1c-1.1-1.7-2.9-2.4-4.6-3.2c-1-0.5-2.3-0.6-3.2,0.4
		c-0.8,0.9-0.3,1.9-0.1,2.9c0.1,0.7,0.4,1.2,0.9,1.6c1,0.9,1.2,1.9,1.2,3.3c0,4.2,1.1,8.2,2.6,12.2c1.1,3,1.2,3-1.7,3.8
		c-0.2,0.1-0.5,0.1-0.7,0.2c-8.7,2-17.4,4-26.1,6.1c-2.5,0.6-5.4,0.9-6.9,4.1c2.1-0.1,3.9-0.2,5.6-0.3
		C13.2,104.5,17.5,104.1,21.3,106.1z M71.3,92.3c-0.6,0-1.2-0.1-1.8-0.2C69.3,90,69,88,67.2,86.6c1.3,0.4,2.5-0.4,3.7-0.6
		c0.1,1.6-0.8,3.5,1.2,4.7C72.9,91.7,73,92.3,71.3,92.3z M66.2,74.2c0,0.9,0.3,1.7,0.8,2.6c1.9-0.1,2,1,1.6,2.4
		c1.5,0.7,1,1.9,0.8,3.1c-1.3-0.8-1.1-1.9-0.8-3.1c-0.7,0.2-0.8-0.7-1.3-0.8l0,0c-0.1-0.6-0.2-1.1-0.3-1.7
		C66.5,75.9,66.2,75.1,66.2,74.2z M38.9,77.8c-0.2-0.6,0.2-1.2,1-1.6c3.1,3.3,6.3,6.5,10.9,7.7c1.1,0.3,1.1,1.2,1.1,2.1
		c-0.2,2.1-0.3,4.3-0.5,6.7c-2-0.8-3.9-0.8-5.9-0.2c-1.1,0.4-1.9,0.3-2.4-1C41.4,87.1,40.3,82.4,38.9,77.8z"/>
	<path style="fill-rule:evenodd;clip-rule:evenodd;fill:#DCDCDC;" d="M56.3,15.3c0.3-2.7,0.6-5.3,0.9-7.9c-0.1-0.6-0.3-1.4,0.3-1.6
		c0.4-0.2,0.6,0.6,0.7,1.1c0.7,2.5,1.3,5,2.9,7.1c0.6,0.8,1.3,1.2,2.3,0.9c0.9-0.3,1.3-1,1.3-2c0-2.8,0.2-5.5,0.2-8.3
		c0-0.7,0.1-1.7-0.9-1.7c-1.3-0.1-1.1,1-1.2,1.9c-0.1,1.9-0.2,3.8-0.3,5.7c0.2,0.4,0.6,1-0.1,1.1c-0.5,0.1-0.8-0.5-0.8-1
		c-1.3-2.8-2.7-5.6-4.1-8.5c-3.4,1.2-2.5,4.2-2.8,6.5C54.4,13.3,54.6,13.7,56.3,15.3z"/>
	<path style="fill-rule:evenodd;clip-rule:evenodd;fill:#DCDCDC;" d="M77.1,113.4c-0.5,0.7-0.5,1.4-0.4,2.2
		c0.3,4.1,2.6,7.2,4.8,10.3c0.7,0.4,1.2,0.8,1.5,1.5c1.1-0.5,0.4-1.2,0.2-1.9c-1.1-3.6-3.3-6.8-4.7-10.3
		C78.3,114.5,78.3,113.5,77.1,113.4z"/>
	<path style="fill-rule:evenodd;clip-rule:evenodd;fill:#DCDCDC;" d="M52.3,132.4c0.1,0,0.2,0,0.3,0.1c0,0,0,0,0,0c0,0,0,0,0,0
		C52.5,132.4,52.4,132.4,52.3,132.4z"/>
	<path style="fill-rule:evenodd;clip-rule:evenodd;fill:#DCDCDC;" d="M68.5,79.3C68.6,79.3,68.6,79.3,68.5,79.3
		C68.6,79.3,68.6,79.2,68.5,79.3C68.6,79.2,68.6,79.2,68.5,79.3C68.6,79.2,68.6,79.3,68.5,79.3z"/>
</g>
</svg>
