<?xml version="1.0" encoding="utf-8"?>
<!-- Generator: Adobe Illustrator 19.1.0, SVG Export Plug-In . SVG Version: 6.00 Build 0)  -->
<svg version="1.1" id="Capa_1" xmlns="http://www.w3.org/2000/svg" xmlns:xlink="http://www.w3.org/1999/xlink" x="0px" y="0px"
	 viewBox="-63 324.1 484 144.9" style="enable-background:new -63 324.1 484 144.9;" xml:space="preserve">
<style type="text/css">
	.st0{fill:#C4D049;}
	.st1{fill:#FFFFFF;}
	.st2{fill:#9EB24B;}
</style>
<g>
	<g>
		<g>
			<path class="st0" d="M89.6,446.9l-0.1,0.5l-0.1,0.5c0,0.1,0,0.3,0,0.4c0,0.4,0.1,0.6,0.6,0.6l0.7-0.1c0.4,0,0.6-0.1,0.8-0.1
				l0.4-0.1l-0.2,0.9l-0.3,0.1l-0.8,0.2l-0.8,0.1c-0.2,0.1-0.5,0.1-0.8,0c-1,0-1.5-0.4-1.5-1.4c0-0.2,0-0.5,0.1-0.9l0.2-0.8l2.1-8.9
				l0.5-2l0.4-1.4l-1.3,2.2c-1.7,2.7-3.6,5.1-5.8,7.2c-1,1-2.1,2-3.3,2.9c-2.4,1.9-4.1,2.9-5.3,2.9c-0.8,0-1.5-0.3-2.1-1
				c-0.6-0.6-0.9-1.3-1.1-2.1c-0.1-0.4-0.1-0.8-0.1-1.3c0.1-3.9,1.3-7.7,3.7-11.3c2.1-3.3,5.5-5.1,10.2-5.6c0.8-0.1,1.6-0.1,2.4-0.1
				l2,0.1l2.3,0.1l1.3,0.1L89.6,446.9z M91,429.8c-0.7,0-1.4,0-2,0c-3.9,0-6.9,0.7-8.9,1.9c-2.2,1.5-4,3.9-5.3,7.4
				c-0.9,2.4-1.4,4.7-1.4,6.8c-0.1,1.6,0.2,2.3,0.9,2.3c0.8,0,2.4-0.9,4.7-2.7c1.5-1.2,2.9-2.4,4.2-3.6c2.9-2.7,5.2-5.7,6.8-8.8
				c0.4-0.7,0.9-1.8,1.5-3.3L91,429.8z"/>
		</g>
		<g>
			<path class="st0" d="M99.6,434l0.2-1l0.2-1l0.2-1l0.1-0.9c0-0.1,0-0.3,0-0.5l0-0.6h1.9v0.2c0,0.3,0,0.7,0,0.9
				c0,0.3-0.1,0.6-0.1,1L102,432l-0.3,1.1l-0.3,1.2l-2.3,9l0.9-2.1c1.8-4,3.6-7,5.4-9.1c0.7-0.8,1.4-1.5,2.2-2.2
				c1.2-1.1,2.5-1.6,3.9-1.6c0.7,0,1.3,0.2,1.7,0.5l0.2,0.2l-0.4,1.4l-0.2-0.2c-0.4-0.2-0.9-0.4-1.5-0.4c-2,0-4.7,2.7-8.1,8
				c-2.1,3.3-3.8,6.8-5.1,10.5l-0.4,1.1h-1.7L99.6,434z"/>
		</g>
		<g>
			<path class="st0" d="M113.1,440.4c0.5-2.7,1.7-5.1,3.6-7.3c2-2.3,4.3-3.8,6.8-4.5c0.8-0.2,1.6-0.3,2.3-0.3c2,0,3.7,0.7,5,2
				c1.2,1.3,1.8,3,1.8,5.1c0,2-0.4,3.8-1.2,5.5c-1.2,2.8-3,5.1-5.4,6.8c-1.1,0.8-2.3,1.4-3.5,1.7c-0.8,0.2-1.7,0.4-2.6,0.4
				c-0.9,0-1.7-0.1-2.5-0.4c-1.5-0.4-2.6-1.3-3.4-2.6c-0.8-1.3-1.2-2.7-1.2-4.2C112.8,442.2,112.9,441.4,113.1,440.4z M114.9,446.7
				l0.4,0.5c1,0.9,2.4,1.3,4.2,1.3c0.6,0,1.1-0.1,1.7-0.2c1.2-0.3,2.4-0.8,3.5-1.6c1.1-0.8,2-1.8,2.8-2.9c0.7-1,1.3-2,1.8-3.2
				c0.6-1.2,1-2.5,1.2-3.7c0.2-1,0.3-1.9,0.3-2.8c0-0.7-0.1-1.4-0.2-2l-0.1-0.6l-0.3-0.3c-0.9-0.8-2.2-1.2-4-1.2
				c-2.8,0-5.3,1.4-7.7,4.2c-2,2.3-3.2,5-3.7,8.1c-0.1,0.8-0.2,1.7-0.2,2.5c0,0.6,0.1,1.1,0.1,1.6L114.9,446.7z"/>
		</g>
		<g>
			<path class="st0" d="M138.8,433.9l0.3-1.1l0.4-1.9c0.1-0.4,0.1-0.7,0.1-1c0-0.1,0-0.3,0-0.5c0-0.2,0-0.4,0-0.7h1.9l0,0.4
				c0,0.2,0,0.4,0,0.7l-0.1,1l-0.2,1.2l-0.2,1.1l-0.3,1.1l-2.2,9.9l1.6-2.9c0.7-1.2,1.4-2.4,2.3-3.6c1.3-1.9,2.9-3.7,4.8-5.5
				c2.6-2.5,4.6-3.8,6.1-3.9c0.5,0,1,0.2,1.5,0.6c0.6,0.5,0.9,0.9,0.9,1.3l-0.1,0.5l-0.1,0.5l-0.2,0.7l-2.8,12.2
				c2.1-3.8,4.2-6.9,6.1-9.2c1.1-1.3,2.4-2.6,4-3.9c2.1-1.7,3.7-2.6,4.8-2.7c0.4,0,0.9,0.2,1.5,0.7c0.5,0.4,0.8,0.8,0.8,1.4l0,0.5
				l-0.1,0.5l-0.1,0.7l-3.3,14.7l-0.3,1.3l-0.1,0.4c0,0.3,0.2,0.5,0.6,0.5l0.7-0.1l0.8-0.1l0.4-0.1l-0.2,0.9l-0.3,0.1l-0.7,0.2
				c-0.3,0.1-0.6,0.1-0.9,0.1c-0.3,0-0.5,0-0.8,0c-1,0-1.5-0.4-1.4-1.4c0-0.3,0-0.6,0.1-0.9l0.2-1l3.4-14.7l0.1-0.6l0.1-0.5l0.1-0.6
				l0-0.2l-0.1-0.1c-0.1,0-0.2-0.1-0.2-0.1c-0.5,0-1.3,0.4-2.4,1.3c-0.9,0.6-1.7,1.3-2.6,2.2c-0.9,0.8-1.7,1.7-2.5,2.6
				c-0.9,1-1.7,2.1-2.6,3.2c-0.9,1.2-1.8,2.6-2.8,4.2c-1.1,1.7-1.9,3.1-2.4,4.2l-0.9,1.8l-0.1,0.2h-1.7l3.9-17.7l0.2-1l0.1-0.6
				c0-0.3-0.2-0.4-0.4-0.4c-1,0.1-2.6,1.2-4.9,3.4c-2,1.9-3.7,3.9-5.3,6.1c-0.8,1-1.6,2.4-2.6,4.1c-1.1,1.8-1.9,3.2-2.5,4.4
				c-0.2,0.4-0.5,1-0.8,1.8h-1.7L138.8,433.9z"/>
		</g>
		<g>
			<path class="st0" d="M191.1,446.9l-0.1,0.5l-0.1,0.5c0,0.1-0.1,0.3,0,0.4c0,0.4,0.2,0.6,0.6,0.6l0.7-0.1c0.4,0,0.6-0.1,0.8-0.1
				l0.4-0.1l-0.2,0.9l-0.3,0.1l-0.8,0.2l-0.8,0.1c-0.3,0.1-0.5,0.1-0.8,0c-1,0-1.5-0.4-1.4-1.4c0-0.2,0-0.5,0.1-0.9l0.2-0.8l2.1-8.9
				l0.5-2l0.4-1.4l-1.3,2.2c-1.7,2.7-3.6,5.1-5.8,7.2c-1,1-2.1,2-3.3,2.9c-2.4,1.9-4.1,2.9-5.3,2.9c-0.8,0-1.5-0.3-2.1-1
				c-0.6-0.6-1-1.3-1.1-2.1c-0.1-0.4-0.1-0.8-0.1-1.3c0.1-3.9,1.3-7.7,3.6-11.3c2.1-3.3,5.5-5.1,10.2-5.6c0.8-0.1,1.6-0.1,2.4-0.1
				l2,0.1l2.3,0.1l1.3,0.1L191.1,446.9z M192.6,429.8c-0.8,0-1.4,0-2,0c-3.9,0-6.9,0.7-8.9,1.9c-2.2,1.5-4,3.9-5.2,7.4
				c-0.9,2.4-1.4,4.7-1.4,6.8c-0.1,1.6,0.2,2.3,0.9,2.3c0.8,0,2.4-0.9,4.7-2.7c1.5-1.2,2.9-2.4,4.2-3.6c2.9-2.7,5.1-5.7,6.7-8.8
				c0.4-0.7,0.9-1.8,1.5-3.3L192.6,429.8z"/>
		</g>
		<g>
			<path class="st0" d="M196.7,446.9l1.2,0.3c1,0.3,1.7,0.5,2.2,0.6c0.8,0.2,1.8,0.4,2.9,0.5c1,0.1,2,0.2,2.8,0.2
				c1.8,0,3.1-0.2,4.1-0.5l0.6-0.2l0.5-0.4c0.3-0.3,0.5-0.5,0.8-0.8c0.2-0.3,0.5-0.6,0.6-0.9c0.4-0.7,0.6-1.4,0.6-2.1
				c0-1.3-0.7-2.2-2.2-2.7c-0.5-0.1-1.1-0.3-2-0.5l-2.3-0.5l-2.1-0.5c-0.7-0.1-1.3-0.3-1.9-0.5c-2.4-0.8-3.6-2.1-3.6-3.9
				c0-1.7,0.9-3.2,2.6-4.4c1.9-1.4,4.5-2.2,7.6-2.1c1.5,0,3,0.2,4.3,0.5c0.6,0.1,1.3,0.3,1.9,0.5l1,0.3l-0.5,1.4l-1-0.3
				c-1.6-0.4-3-0.7-4.3-0.9c-0.8-0.1-1.6-0.1-2.4-0.1l-1.8,0.1c-0.7,0.1-1.3,0.1-1.8,0.2c-0.5,0.1-0.9,0.2-1.3,0.3l-0.4,0.2
				l-0.3,0.2c-1.2,1-1.8,2.2-1.8,3.5c0,1.3,0.8,2.2,2.6,2.8c0.6,0.2,1.2,0.4,1.7,0.5c0.5,0.1,1.2,0.3,1.9,0.4l2.2,0.4
				c0.8,0.2,1.5,0.3,2.2,0.5c2.4,0.7,3.6,2,3.6,3.8c0,2.3-1.2,4.1-3.8,5.5c-1.9,1-4.1,1.6-6.7,1.6c-1.7,0-3.3-0.2-4.9-0.6
				c-0.7-0.2-1.4-0.4-2.1-0.6l-1-0.4L196.7,446.9z"/>
		</g>
		<g>
			<path class="st0" d="M227.2,457.1l1,0.3c0.4,0.1,0.9,0.2,1.7,0.2l1.5,0.1c4.9-0.1,8.2-2,9.9-5.7c0.4-0.8,0.7-1.8,1-2.9l0.6-2.4
				l2.4-10l0.5-1.8l0.5-1.6c-0.8,1.5-1.5,2.5-1.9,3.2c-2,3.1-4.1,5.7-6.3,7.9c-2.9,2.8-5.7,4.7-8.3,5.6c-0.2,0.1-0.5,0.1-0.7,0.1
				c-0.5,0-0.9-0.2-1.4-0.8c-0.4-0.5-0.7-1-0.7-1.5c0-0.2,0-0.4,0.1-0.6l0.3-1.1l4.2-14.5l0.3-1c0.1-0.4,0.2-0.8,0.2-1.1l0-0.4
				l0-0.3h1.8c0,0.3,0,0.5,0,0.6c0,0.3,0,0.6-0.1,1.1l-0.2,1l-0.2,0.9l-4.1,14.2l-0.2,0.6l-0.2,0.7l0,0.3l0,0.2
				c0,0.1,0.1,0.1,0.2,0.1c0.1,0,0.3,0,0.5-0.1c4.6-2.3,8.7-5.7,12.2-10.3c0.6-0.8,1.3-1.8,2.1-3c1.1-1.7,2-3.2,2.6-4.5l0.8-1.8h1.8
				l-4,17.9c-0.3,1.1-0.5,2-0.7,2.7c-0.3,1-0.7,2.1-1.1,3.1c-0.7,1.4-1.5,2.6-2.4,3.4c-0.9,0.9-2,1.6-3.2,2.1
				c-1.8,0.8-3.8,1.1-6,1.2c-0.6,0-1.2,0-1.8-0.1c-0.6-0.1-1.2-0.2-1.9-0.3l-0.9-0.2L227.2,457.1z"/>
		</g>
		<g>
			<path class="st0" d="M259.1,446.9l1.2,0.3c1,0.3,1.7,0.5,2.2,0.6c0.8,0.2,1.8,0.4,2.9,0.5c1,0.1,2,0.2,2.8,0.2
				c1.7,0,3.1-0.2,4.1-0.5l0.6-0.2l0.5-0.4c0.3-0.3,0.5-0.5,0.8-0.8c0.2-0.3,0.4-0.6,0.6-0.9c0.4-0.7,0.6-1.4,0.6-2.1
				c0-1.3-0.7-2.2-2.2-2.7c-0.5-0.1-1.1-0.3-2-0.5l-2.3-0.5l-2.1-0.5c-0.7-0.1-1.3-0.3-1.9-0.5c-2.4-0.8-3.6-2.1-3.6-3.9
				c0-1.7,0.9-3.2,2.6-4.4c1.9-1.4,4.5-2.2,7.6-2.1c1.5,0,3,0.2,4.3,0.5c0.7,0.1,1.3,0.3,1.9,0.5l1,0.3l-0.5,1.4l-1-0.3
				c-1.5-0.4-3-0.7-4.3-0.9c-0.8-0.1-1.6-0.1-2.4-0.1l-1.8,0.1c-0.7,0.1-1.3,0.1-1.8,0.2c-0.5,0.1-0.9,0.2-1.3,0.3l-0.4,0.2
				l-0.3,0.2c-1.2,1-1.8,2.2-1.8,3.5c0,1.3,0.8,2.2,2.6,2.8c0.6,0.2,1.2,0.4,1.7,0.5c0.5,0.1,1.2,0.3,1.9,0.4l2.2,0.4
				c0.7,0.2,1.5,0.3,2.2,0.5c2.4,0.7,3.6,2,3.6,3.8c0,2.3-1.2,4.1-3.8,5.5c-1.9,1-4.2,1.6-6.8,1.6c-1.7,0-3.3-0.2-4.9-0.6
				c-0.8-0.2-1.4-0.4-2.1-0.6l-1-0.4L259.1,446.9z"/>
		</g>
		<g>
			<path class="st0" d="M299.1,446.9l-0.1,0.5l-0.1,0.5c0,0.1-0.1,0.3,0,0.4c0,0.4,0.2,0.6,0.6,0.6l0.7-0.1c0.3,0,0.6-0.1,0.8-0.1
				l0.4-0.1l-0.2,0.9l-0.3,0.1l-0.8,0.2l-0.8,0.1c-0.2,0.1-0.5,0.1-0.8,0c-1,0-1.5-0.4-1.5-1.4c0-0.2,0-0.5,0.1-0.9l0.2-0.8l2.1-8.9
				l0.5-2l0.4-1.4l-1.3,2.2c-1.7,2.7-3.6,5.1-5.8,7.2c-1,1-2.1,2-3.3,2.9c-2.4,1.9-4.1,2.9-5.3,2.9c-0.8,0-1.5-0.3-2.1-1
				c-0.6-0.6-1-1.3-1.1-2.1c-0.1-0.4-0.1-0.8-0.1-1.3c0.1-3.9,1.3-7.7,3.7-11.3c2.1-3.3,5.5-5.1,10.2-5.6c0.8-0.1,1.6-0.1,2.4-0.1
				l2,0.1l2.3,0.1l1.4,0.1L299.1,446.9z M300.5,429.8c-0.8,0-1.4,0-2,0c-3.9,0-6.9,0.7-8.9,1.9c-2.2,1.5-4,3.9-5.3,7.4
				c-0.9,2.4-1.3,4.7-1.3,6.8c-0.1,1.6,0.2,2.3,0.9,2.3c0.8,0,2.4-0.9,4.7-2.7c1.5-1.2,2.9-2.4,4.2-3.6c2.9-2.7,5.2-5.7,6.7-8.8
				c0.4-0.7,0.9-1.8,1.5-3.3L300.5,429.8z"/>
		</g>
		<g>
			<path class="st0" d="M310.6,424.9l0.2-0.9l0.2-0.9l0.1-0.9l0.1-0.9l0-0.5l0-0.3h1.9l0,0.3l0,0.6l-0.1,0.9l-0.1,0.9l-0.2,1
				l-0.2,0.9l-4.1,17.9c0.7-1.2,1.2-2.1,1.6-2.7c0.7-1,1.4-2,2.4-3.1c0.8-1,1.7-1.9,2.7-2.9c2-1.8,3.7-3.3,5.3-4.4
				c0.6-0.4,1.2-0.7,1.9-1c0.6-0.2,1.1-0.4,1.5-0.4c0.9,0,1.8,0.4,2.7,1.2c0.8,0.8,1.3,1.7,1.3,2.7c0,0.6-0.1,1.4-0.2,2.2
				c-0.2,1-0.4,1.9-0.7,2.7c-0.3,1.1-0.8,2.1-1.3,3.1c-0.5,1-1.2,2.1-2,3.1c-0.8,1.1-1.7,2.2-2.7,3.1c-2.4,2.3-5.7,3.4-9.8,3.5
				c-0.7,0-1.6,0-2.7-0.2c-0.9-0.1-1.7-0.2-2.4-0.3l-0.9-0.1L310.6,424.9z M307.2,448.2l0.8,0.1c0.4,0.1,1,0.1,1.8,0.1
				c0.6,0,1,0.1,1.4,0c4.3,0.1,7.8-1.7,10.5-5.4c1.1-1.4,2-3.2,3-5.4c0.9-2.2,1.4-4.2,1.4-6c0-1.3-0.4-1.9-1.2-1.9
				c-1.4,0-3.3,1.1-5.9,3.1c-2,1.6-3.9,3.4-5.6,5.3c-0.7,0.7-1.5,1.7-2.4,3c-0.9,1.2-1.6,2.2-2.2,3.2c-0.5,0.9-1,1.9-1.4,3
				L307.2,448.2z"/>
		</g>
		<g>
			<path class="st0" d="M329.8,440.4c0.5-2.7,1.7-5.1,3.6-7.3c2-2.3,4.3-3.8,6.8-4.5c0.8-0.2,1.5-0.3,2.3-0.3c2,0,3.7,0.7,5,2
				c1.2,1.3,1.8,3,1.8,5.1c0,2-0.4,3.8-1.2,5.5c-1.2,2.8-3,5.1-5.4,6.8c-1.1,0.8-2.3,1.4-3.5,1.7c-0.9,0.2-1.7,0.4-2.6,0.4
				c-0.9,0-1.7-0.1-2.5-0.4c-1.5-0.4-2.6-1.3-3.4-2.6c-0.8-1.3-1.2-2.7-1.2-4.2C329.6,442.2,329.6,441.4,329.8,440.4z M331.7,446.7
				l0.5,0.5c1,0.9,2.4,1.3,4.2,1.3c0.6,0,1.1-0.1,1.7-0.2c1.3-0.3,2.4-0.8,3.5-1.6c1.1-0.8,2-1.8,2.8-2.9c0.7-1,1.3-2,1.8-3.2
				c0.6-1.2,0.9-2.5,1.2-3.7c0.2-1,0.3-1.9,0.3-2.8c0-0.7-0.1-1.4-0.2-2l-0.2-0.6l-0.3-0.3c-0.9-0.8-2.2-1.2-4-1.2
				c-2.8,0-5.3,1.4-7.7,4.2c-2,2.3-3.2,5-3.7,8.1c-0.1,0.8-0.2,1.7-0.2,2.5c0,0.6,0.1,1.1,0.1,1.6L331.7,446.7z"/>
		</g>
		<g>
			<path class="st0" d="M355.5,434l0.2-1l0.2-1l0.2-1l0.2-0.9c0-0.1,0-0.3,0-0.5l0-0.6h1.9v0.2c0,0.3,0,0.7,0,0.9
				c0,0.3-0.1,0.6-0.1,1l-0.2,1.2l-0.3,1.1l-0.3,1.2l-2.3,9l0.9-2.1c1.8-4,3.6-7,5.4-9.1c0.7-0.8,1.4-1.5,2.2-2.2
				c1.2-1.1,2.6-1.6,3.9-1.6c0.7,0,1.3,0.2,1.7,0.5l0.3,0.2l-0.4,1.4l-0.2-0.2c-0.4-0.2-0.9-0.4-1.5-0.4c-2,0-4.7,2.7-8.1,8
				c-2.1,3.3-3.8,6.8-5.1,10.5l-0.4,1.1h-1.7L355.5,434z"/>
		</g>
		<g>
			<path class="st0" d="M383.9,448.5c-1.7,0.7-3.4,1.1-4.8,1.3c-0.7,0.1-1.4,0.1-1.9,0.1c-0.7,0-1.4,0-2.1-0.2
				c-3.3-0.6-5.3-2.4-6-5.2c-0.2-0.7-0.2-1.4-0.2-2.2c0-3.5,1.5-6.7,4.5-9.5c3-2.9,6.2-4.4,9.6-4.5c1.3,0,2.5,0.3,3.5,1
				c1.1,0.7,1.7,1.8,1.7,3.1c0,1.2-0.7,2.5-2,3.7c-0.7,0.7-1.5,1.4-2.4,2c-2.6,1.8-5.9,3.2-10,4.2c-0.7,0.2-1.7,0.4-3.1,0.7
				c0,0.4,0.1,0.7,0.2,0.9c0.3,1.5,1.1,2.6,2.3,3.5c1,0.7,2.3,1,4.1,1c2.4,0,4.7-0.5,7.1-1.3l1-0.4l-0.5,1.4L383.9,448.5z
				 M370.5,441.6l2.6-0.6c5.3-1.4,9.3-3.4,11.9-6.1c0.7-0.6,1.2-1.4,1.7-2.2c0.3-0.5,0.4-0.9,0.4-1.3l0-0.3l-0.2-0.2
				c-0.7-0.7-2-1.1-3.7-1.1c-0.7,0-1.3,0.1-2,0.2c-2.3,0.5-4.5,1.8-6.6,3.8c-2.1,2.1-3.4,4.2-3.8,6.5L370.5,441.6z"/>
		</g>
		<g>
			<path class="st0" d="M388.7,446.9l1.2,0.3c1,0.3,1.7,0.5,2.2,0.6c0.8,0.2,1.8,0.4,2.9,0.5c1.1,0.1,2,0.2,2.8,0.2
				c1.8,0,3.1-0.2,4.1-0.5l0.6-0.2l0.5-0.4c0.3-0.3,0.6-0.5,0.8-0.8c0.2-0.3,0.4-0.6,0.6-0.9c0.4-0.7,0.6-1.4,0.6-2.1
				c0-1.3-0.7-2.2-2.2-2.7c-0.5-0.1-1.1-0.3-2-0.5l-2.3-0.5l-2.1-0.5c-0.7-0.1-1.3-0.3-1.9-0.5c-2.5-0.8-3.7-2.1-3.6-3.9
				c0-1.7,0.9-3.2,2.6-4.4c1.9-1.4,4.5-2.2,7.6-2.1c1.5,0,3,0.2,4.3,0.5c0.6,0.1,1.3,0.3,1.9,0.5l1,0.3l-0.5,1.4l-1-0.3
				c-1.5-0.4-3-0.7-4.3-0.9c-0.8-0.1-1.6-0.1-2.4-0.1l-1.8,0.1c-0.7,0.1-1.3,0.1-1.8,0.2c-0.5,0.1-0.9,0.2-1.3,0.3l-0.4,0.2
				l-0.3,0.2c-1.2,1-1.8,2.2-1.8,3.5c0,1.3,0.8,2.2,2.6,2.8c0.6,0.2,1.2,0.4,1.7,0.5c0.5,0.1,1.1,0.3,1.9,0.4l2.2,0.4
				c0.8,0.2,1.5,0.3,2.2,0.5c2.4,0.7,3.6,2,3.6,3.8c0,2.3-1.2,4.1-3.8,5.5c-1.9,1-4.1,1.6-6.8,1.6c-1.7,0-3.3-0.2-4.9-0.6
				c-0.7-0.2-1.4-0.4-2-0.6l-1-0.4L388.7,446.9z"/>
		</g>
	</g>
	<g>
		<g>
			<g>
				<path class="st1" d="M80.8,378.8v20.7c0,2.4,0.2,4.5,0.5,6.4c0.3,1.9,0.8,3.7,1.5,5.4H71.9c0.7-1.7,1.1-3.5,1.5-5.4
					c0.3-1.9,0.5-4,0.5-6.4v-28.7l-4.7-4.8h10.6c0,1.1,0.7,2.4,2,4c0.1,0.1,0.1,0.1,0.1,0.2l14.1,18l14.2-18c0.8-1,1.3-1.8,1.6-2.4
					c0.3-0.6,0.4-1.2,0.5-1.8h10c-1.4,1.1-2.4,2.7-3.2,4.6c-0.7,2-1.1,4.3-1.1,6.8v22c0,2.4,0.2,4.5,0.5,6.4
					c0.3,1.9,0.8,3.7,1.5,5.4H109c0.7-1.7,1.2-3.5,1.5-5.4c0.3-1.9,0.5-4,0.5-6.3v-20.6l-15.2,18.8L80.8,378.8z"/>
			</g>
			<g>
				<path class="st1" d="M136.8,397.3l-2.9,6c-0.6,1.3-1.1,2.5-1.4,3.6c-0.3,1.1-0.4,2.1-0.4,3.1c0,0.2,0,0.4,0,0.6
					c0,0.2,0,0.4,0.1,0.8h-10.7c1.1-1.5,2.3-3.1,3.4-4.9c1.1-1.8,2.2-3.9,3.3-6.1l17.5-35.2l16.9,36.5c0.6,1.4,1.4,2.9,2.5,4.5
					c1,1.6,2.2,3.4,3.7,5.3h-11.6c0.1-0.4,0.1-0.8,0.1-1.1c0-0.4,0-0.7,0-1c0-0.7-0.1-1.4-0.2-2c-0.2-0.7-0.5-1.6-1-2.8l-3.1-7.1
					L136.8,397.3L136.8,397.3z M139.2,392.1h11.4l-5.4-12.9L139.2,392.1z"/>
			</g>
			<g>
				<path class="st1" d="M179,399.5c0,2.3,0.2,4.4,0.5,6.3c0.3,1.9,0.8,3.7,1.5,5.4h-10.8c0.7-1.7,1.2-3.5,1.5-5.4
					c0.3-1.9,0.5-4,0.5-6.3v-21.7c0-2.3-0.2-4.4-0.5-6.4c-0.3-1.9-0.8-3.7-1.5-5.4h7.5c6.5,0,11.3,1.1,14.5,3.3
					c3.1,2.2,4.7,5.5,4.7,9.9c0,2.6-0.8,4.9-2.4,6.9c-1.6,1.9-3.9,3.4-6.9,4.4c2.3,3.7,4.7,7.3,7.4,10.8c2.6,3.5,5.5,6.8,8.5,10
					h-6.7c-1.1,0-3.2-1.9-6.4-5.6c-3.2-3.8-7-8.8-11.4-15.2L179,399.5L179,399.5z M179,370.3v18.6c3.4-0.5,6-1.5,7.8-3.2
					c1.9-1.7,2.8-3.9,2.8-6.5c0-2.7-0.9-4.9-2.9-6.5C184.9,371.1,182.3,370.3,179,370.3z"/>
			</g>
			<g>
				<path class="st1" d="M206.6,411.3c0.7-1.7,1.2-3.5,1.5-5.4c0.3-1.9,0.5-4,0.5-6.3v-21.7c0-2.3-0.2-4.4-0.5-6.4
					c-0.3-1.9-0.8-3.7-1.5-5.4h5.3c3.5,0,6.3,0.2,8.7,0.5c2.4,0.4,4.5,0.9,6.5,1.7c4.3,1.7,7.7,4.4,10.3,8.1
					c2.5,3.7,3.8,7.8,3.8,12.3c0,4.3-1,8.2-2.9,11.6c-1.9,3.4-4.6,6.1-8.1,8c-1.9,1.1-4.1,1.8-6.6,2.3c-2.5,0.5-5.5,0.7-9.3,0.7
					L206.6,411.3L206.6,411.3z M215.4,407.1h0.3c1.4,0,2.7-0.2,4-0.5c1.3-0.3,2.5-0.8,3.7-1.4c3.1-1.6,5.5-3.8,7.2-6.6
					c1.7-2.9,2.6-6.1,2.6-9.6c0-5-1.6-9.2-4.8-12.6c-3.2-3.4-7.5-5.4-13-6L215.4,407.1L215.4,407.1z"/>
			</g>
			<g>
				<path class="st1" d="M247.2,411.3c0.7-1.7,1.2-3.5,1.5-5.4c0.3-1.9,0.5-4,0.5-6.3v-21.7c0-2.3-0.2-4.4-0.5-6.4
					c-0.3-1.9-0.8-3.7-1.5-5.4h24.8l-3.5,7.3c-1.4-0.9-3.1-1.6-5.1-2.1c-2-0.5-4.2-0.7-6.8-0.7H256v15.6h14.1l-4.1,6.6
					c-1.1-0.6-2.5-1.1-4.1-1.4c-1.6-0.4-3.6-0.6-5.8-0.8V407c0.2,0,0.5,0,0.9,0c0.4,0,0.7,0,0.9,0c2.9,0,5.6-0.3,8.3-0.8
					c2.7-0.5,5.4-1.4,8.1-2.4l-3.4,7.5L247.2,411.3L247.2,411.3L247.2,411.3z"/>
			</g>
			<g>
				<path class="st1" d="M318.6,408.8c-2.7,0.9-5.5,1.6-8.2,2.1c-2.7,0.5-5.3,0.7-7.8,0.7c-7.6,0-13.7-2-18.2-6
					c-4.5-4-6.7-9.5-6.7-16.3c0-3.8,0.8-7.3,2.3-10.5c1.5-3.2,3.7-6,6.7-8.3c2-1.6,4.5-2.8,7.3-3.7c2.8-0.8,6-1.2,9.5-1.2
					c1.9,0,3.9,0.1,5.9,0.4c2,0.3,4.1,0.7,6.3,1.2l-0.1,7.7c-2-1.3-4.2-2.3-6.4-2.9c-2.3-0.7-4.7-1-7.2-1c-5.2,0-9.2,1.5-12.2,4.6
					c-3,3.1-4.4,7.3-4.4,12.7c0,5.2,1.6,9.5,4.8,12.7c3.2,3.2,7.4,4.9,12.6,4.9c1.4,0,2.8-0.1,4.1-0.3c1.3-0.2,2.6-0.5,4-0.9v-6
					c0-2.8-0.2-4.9-0.7-6.4c-0.5-1.4-1.2-2.7-2.3-3.8h11.4c-0.5,0.7-0.9,1.8-1.1,3.2c-0.3,1.4-0.4,3.1-0.4,5v5.5
					c0,1.4,0.1,2.6,0.2,3.7C318.1,407,318.3,407.9,318.6,408.8z"/>
			</g>
			<g>
				<path class="st1" d="M335.4,397.3l-2.9,6c-0.6,1.3-1.1,2.5-1.4,3.6c-0.3,1.1-0.4,2.1-0.4,3.1c0,0.2,0,0.4,0,0.6
					c0,0.2,0,0.4,0.1,0.8H320c1.2-1.5,2.3-3.1,3.4-4.9c1.1-1.8,2.2-3.9,3.3-6.1l17.5-35.2l16.9,36.5c0.6,1.4,1.4,2.9,2.4,4.5
					c1,1.6,2.3,3.4,3.7,5.3h-11.6c0.1-0.4,0.1-0.8,0.1-1.1c0-0.4,0-0.7,0-1c0-0.7-0.1-1.4-0.2-2c-0.2-0.7-0.5-1.6-1-2.8l-3.1-7.1
					L335.4,397.3L335.4,397.3z M337.8,392.1h11.4l-5.4-12.9L337.8,392.1z"/>
			</g>
			<g>
				<path class="st1" d="M377,399.5c0,2.4,0.2,4.5,0.5,6.4c0.3,1.9,0.8,3.7,1.5,5.4h-10.1c0.7-1.7,1.2-3.5,1.5-5.4
					c0.3-1.9,0.5-4,0.5-6.3v-27l-5.4-6.5h11.5v0.3c0,1.3,0.7,2.9,2,4.7c0.2,0.2,0.3,0.4,0.4,0.5l20.7,28.8v-22.5
					c0-2.4-0.2-4.5-0.5-6.4c-0.3-1.9-0.8-3.7-1.5-5.3h10.1c-0.7,1.7-1.2,3.5-1.5,5.4c-0.3,1.9-0.5,4-0.5,6.3v22.3
					c0,2.5,0.1,4.6,0.2,6.4c0.2,1.8,0.4,3.4,0.8,4.8h-9.3c-0.1-0.9-0.3-1.8-0.6-2.6c-0.3-0.8-0.7-1.5-1.2-2.2L377,380.2L377,399.5
					L377,399.5L377,399.5z"/>
			</g>
		</g>
	</g>
	<g>
		<g>
			<path class="st2" d="M19.7,434.8l-1.2-1.6c7.2-6.4,12.6-13.9,16-22.4c6.5-16.3,4.6-34-5.1-50l-0.2,0c-5,1.9-9.8,4.2-14.2,7
				l-1.2-1.6c6.8-6,14.9-10.8,24-14.2c1-0.4,2.2,0,2.7,0.9c10.1,16.6,12,35,5.3,51.9C40.8,416.8,31.8,427.2,19.7,434.8z"/>
		</g>
		<g>
			<path class="st0" d="M0.2,379.9c6.2,6,17.6,24.7,17.6,24.7s1.8,0.3,2.3,0.3C18.4,390-1.6,340.1-6.6,333.9
				c-21.9,15.8-35.6,36.7-41.2,59.8c-5.6,23.2-1.1,43.5,12.7,60.8c4.3-3.1,8.2-6.3,11.9-9.6c-2.8,0.3-5.6,0.5-8.4,0.6
				c-0.8,0-1.5-0.4-1.6-1c-4.5-20,2-39.2,18.3-54C-10.5,386.5-5.4,382.9,0.2,379.9z"/>
		</g>
	</g>
</g>
</svg>
